<svg  viewBox="0 0 570 363" fill="none" xmlns="http://www.w3.org/2000/svg">
<g clip-path="url(#clip0_616:3058)">
<path d="M196.336 339.808L178.886 349.934L196.09 345.785C195.957 347.204 195.777 348.599 195.536 349.964C195.47 350.343 195.398 350.715 195.319 351.088C194.731 354.222 193.666 357.248 192.16 360.06C191.871 360.577 191.582 361.082 191.282 361.569C190.993 362.062 190.692 362.537 190.385 363H144.129C143.744 362.537 143.377 362.056 143.04 361.569C139.742 356.93 138.406 351.179 139.321 345.562C139.489 344.42 139.731 343.289 140.043 342.177C140.347 341.041 140.714 339.922 141.145 338.828C141.896 336.894 142.783 335.015 143.798 333.205C145.916 329.393 149.22 325.954 153.113 322.899C154.998 321.429 156.963 320.064 158.998 318.81C159.383 318.564 159.775 318.323 160.172 318.089C160.779 317.728 161.387 317.373 162.001 317.03C163.222 316.333 164.456 315.672 165.69 315.046C166.015 314.878 166.333 314.715 166.652 314.559C169.33 313.224 171.996 312.028 174.535 310.975C174.854 310.843 175.179 310.711 175.498 310.585C180.549 308.52 185.717 306.751 190.975 305.287C190.975 305.287 190.993 305.335 191.023 305.437C191.101 305.714 191.3 306.381 191.57 307.368C192.323 310.103 193.647 315.323 194.712 321.624C194.772 321.967 194.826 322.316 194.886 322.665C195.776 327.995 196.268 333.383 196.36 338.786C196.366 339.122 196.366 339.453 196.366 339.79L196.336 339.808Z" fill="#F2F2F2"/>
<path d="M192.251 304.674C192.244 304.692 192.184 304.986 192.046 305.528C191.932 305.979 191.775 306.598 191.57 307.368C190.866 310.055 189.615 314.559 187.834 319.983C187.731 320.295 187.623 320.62 187.515 320.945C186.275 324.655 184.801 328.756 183.098 332.971C182.671 334.029 182.243 335.069 181.804 336.086C181.672 336.404 181.539 336.717 181.401 337.024C179.536 341.341 177.616 345.292 175.643 348.875L175.143 349.771C172.849 353.929 170.193 357.877 167.206 361.569C166.803 362.062 166.394 362.537 165.979 363H164.582C165.004 362.537 165.425 362.056 165.834 361.569C168.993 357.749 171.787 353.642 174.18 349.302C174.349 349.008 174.517 348.713 174.68 348.412C176.804 344.558 178.736 340.529 180.462 336.537C180.601 336.23 180.733 335.917 180.865 335.599C183.122 330.319 185.018 325.13 186.546 320.56C186.654 320.235 186.763 319.911 186.865 319.592C189.092 312.845 190.487 307.554 191.023 305.437C191.095 305.125 191.155 304.878 191.198 304.71C191.24 304.553 191.258 304.463 191.264 304.445L191.751 304.559H191.757L192.251 304.674Z" fill="white"/>
<path d="M195.632 321.703C195.325 321.685 195.018 321.654 194.712 321.624C192.357 321.38 190.045 320.828 187.834 319.983C187.515 319.857 187.19 319.73 186.865 319.592C185.985 319.214 185.125 318.791 184.289 318.323C180.832 316.411 177.832 313.771 175.498 310.585C175.42 310.482 175.342 310.374 175.269 310.272C174.956 310.404 174.638 310.536 174.313 310.669C174.385 310.771 174.457 310.873 174.535 310.975C176.971 314.375 180.135 317.189 183.796 319.213C184.688 319.71 185.606 320.16 186.546 320.56C186.865 320.692 187.19 320.825 187.515 320.945C189.884 321.846 192.363 322.425 194.886 322.665C195.187 322.695 195.494 322.719 195.795 322.737C195.741 322.382 195.687 322.039 195.632 321.703Z" fill="white"/>
<path d="M196.36 338.786C191.352 339.242 186.315 338.308 181.804 336.086C181.485 335.935 181.173 335.773 180.865 335.599C180.768 335.555 180.674 335.504 180.583 335.448C176.764 333.327 173.507 330.325 171.084 326.691C168.661 323.057 167.141 318.898 166.653 314.559C166.641 314.457 166.628 314.349 166.616 314.246C166.291 314.415 165.966 314.577 165.648 314.746C165.659 314.848 165.671 314.944 165.69 315.046C166.246 319.477 167.839 323.714 170.341 327.413C172.843 331.113 176.183 334.17 180.089 336.338C180.21 336.404 180.336 336.477 180.462 336.537C180.775 336.705 181.088 336.867 181.401 337.024C186.033 339.294 191.197 340.257 196.337 339.808C196.607 339.784 196.878 339.754 197.149 339.724C197.149 339.381 197.155 339.044 197.155 338.701C196.89 338.731 196.625 338.761 196.36 338.786Z" fill="white"/>
<path d="M195.536 349.964C190.119 351.74 184.282 351.785 178.838 350.09C177.748 349.754 176.681 349.348 175.643 348.875C175.318 348.731 174.998 348.575 174.68 348.412C174.337 348.244 174 348.064 173.669 347.883C169.168 345.38 165.462 341.662 162.974 337.155C160.485 332.649 159.314 327.534 159.594 322.394C159.668 320.946 159.861 319.506 160.172 318.089C160.19 317.993 160.208 317.896 160.232 317.8C159.835 318.047 159.438 318.293 159.046 318.546C159.029 318.636 159.01 318.72 158.998 318.81C158.646 320.752 158.498 322.725 158.559 324.697C158.692 329.632 160.109 334.447 162.671 338.667C165.233 342.888 168.851 346.369 173.169 348.767C173.506 348.954 173.843 349.134 174.18 349.302C174.499 349.465 174.824 349.621 175.143 349.771C181.479 352.67 188.66 353.139 195.319 351.088C195.542 351.028 195.765 350.956 195.987 350.884C196.078 350.499 196.156 350.114 196.228 349.729C195.999 349.813 195.771 349.892 195.536 349.964Z" fill="white"/>
<path d="M154.196 148.233H120.499V181.906H154.196V148.233Z" fill="#FFB8B8"/>
<path d="M99.4836 349.485L106.123 349.485L109.281 323.895L99.4824 323.895L99.4836 349.485Z" fill="#FFB8B8"/>
<path d="M117.707 356.963L107.73 350.078V345.586L106.599 345.652L99.486 346.079L97.2354 346.212L95.9537 361.569L95.9117 362.08H100.623L100.719 361.569L101.466 357.636L103.373 361.569L103.62 362.08H116.112C116.856 362.079 117.569 361.783 118.095 361.258C118.622 360.733 118.919 360.021 118.922 359.278C118.923 358.823 118.812 358.374 118.6 357.971C118.389 357.567 118.082 357.221 117.707 356.963V356.963Z" fill="#2F2E41"/>
<path d="M138.312 345.273L144.693 347.106L154.807 323.386L145.39 320.68L138.312 345.273Z" fill="#FFB8B8"/>
<path d="M153.757 357.498L146.073 348.124L147.318 343.806L146.211 343.56L140.043 342.177L139.255 342.002L137.059 341.509L131.396 356.392L135.921 357.696L137.961 353.656L138.798 358.52L141.65 359.338L149.406 361.569L150.809 361.972C151.384 362.139 151.998 362.117 152.56 361.91C153.122 361.703 153.604 361.321 153.933 360.821C154.263 360.321 154.424 359.729 154.392 359.131C154.36 358.533 154.138 357.961 153.757 357.498V357.498Z" fill="#2F2E41"/>
<path d="M568.032 0H216.338C215.816 0.00159158 215.315 0.210086 214.947 0.579786C214.578 0.949486 214.371 1.45023 214.371 1.97227V13.5473C214.371 14.0694 214.578 14.5701 214.946 14.9398C215.315 15.3095 215.816 15.518 216.338 15.5196H568.032C568.555 15.5181 569.055 15.3096 569.424 14.9399C569.793 14.5702 570 14.0694 570 13.5473V1.97227C570 1.45021 569.793 0.949443 569.424 0.579731C569.055 0.210019 568.555 0.00153767 568.032 0Z" fill="#E4E4E4"/>
<path d="M225.803 9.98923C227.347 9.98923 228.6 8.73798 228.6 7.19448C228.6 5.65097 227.347 4.39972 225.803 4.39972C224.258 4.39972 223.006 5.65097 223.006 7.19448C223.006 8.73798 224.258 9.98923 225.803 9.98923Z" fill="white"/>
<path d="M236.419 9.98923C237.963 9.98923 239.215 8.73798 239.215 7.19448C239.215 5.65097 237.963 4.39972 236.419 4.39972C234.874 4.39972 233.622 5.65097 233.622 7.19448C233.622 8.73798 234.874 9.98923 236.419 9.98923Z" fill="white"/>
<path d="M247.035 9.98923C248.579 9.98923 249.832 8.73798 249.832 7.19448C249.832 5.65097 248.579 4.39972 247.035 4.39972C245.49 4.39972 244.238 5.65097 244.238 7.19448C244.238 8.73798 245.49 9.98923 247.035 9.98923Z" fill="white"/>
<path d="M557.628 3.4635H545.407C545.167 3.4635 544.936 3.55885 544.766 3.72856C544.597 3.89827 544.501 4.12845 544.501 4.36846C544.501 4.60847 544.597 4.83865 544.766 5.00837C544.936 5.17808 545.167 5.27343 545.407 5.27343H557.628C557.868 5.27343 558.099 5.17808 558.269 5.00837C558.438 4.83865 558.534 4.60847 558.534 4.36846C558.534 4.12845 558.438 3.89827 558.269 3.72856C558.099 3.55885 557.868 3.4635 557.628 3.4635V3.4635Z" fill="white"/>
<path d="M557.628 6.85483H545.407C545.288 6.85483 545.17 6.87824 545.06 6.92371C544.95 6.96919 544.85 7.03586 544.766 7.11989C544.682 7.20392 544.616 7.30368 544.57 7.41347C544.525 7.52327 544.501 7.64095 544.501 7.75979C544.501 7.87863 544.525 7.99631 544.57 8.10611C544.616 8.2159 544.682 8.31566 544.766 8.39969C544.85 8.48373 544.95 8.55039 545.06 8.59587C545.17 8.64134 545.288 8.66475 545.407 8.66475H557.628C557.747 8.66475 557.865 8.64134 557.975 8.59587C558.085 8.55039 558.184 8.48373 558.269 8.39969C558.353 8.31566 558.419 8.2159 558.465 8.10611C558.51 7.99631 558.534 7.87863 558.534 7.75979C558.534 7.64095 558.51 7.52327 558.465 7.41347C558.419 7.30368 558.353 7.20392 558.269 7.11989C558.184 7.03586 558.085 6.96919 557.975 6.92371C557.865 6.87824 557.747 6.85483 557.628 6.85483Z" fill="white"/>
<path d="M557.628 10.2462H545.407C545.167 10.2462 544.936 10.3415 544.766 10.5112C544.597 10.6809 544.501 10.9111 544.501 11.1511C544.501 11.3911 544.597 11.6213 544.766 11.791C544.936 11.9608 545.167 12.0561 545.407 12.0561H557.628C557.868 12.0561 558.099 11.9608 558.269 11.791C558.438 11.6213 558.534 11.3911 558.534 11.1511C558.534 10.9111 558.438 10.6809 558.269 10.5112C558.099 10.3415 557.868 10.2462 557.628 10.2462V10.2462Z" fill="white"/>
<path d="M556.238 49.0001H465.117C464.482 49.0017 463.874 49.2544 463.425 49.7028C462.976 50.1513 462.723 50.7591 462.722 51.3933V88.3433C462.723 88.9775 462.976 89.5853 463.425 90.0338C463.874 90.4822 464.482 90.7349 465.117 90.7365H556.238C556.873 90.7359 557.482 90.4836 557.931 90.0349C558.38 89.5862 558.632 88.9778 558.633 88.3433V51.3933C558.632 50.7588 558.38 50.1504 557.931 49.7017C557.482 49.2531 556.873 49.0007 556.238 49.0001V49.0001Z" fill="#E4E4E4"/>
<path d="M547.561 102.714H473.794C473.032 102.714 472.301 103.017 471.762 103.555C471.223 104.094 470.92 104.824 470.92 105.586C470.92 106.347 471.223 107.077 471.762 107.616C472.301 108.154 473.032 108.457 473.794 108.457H547.561C551.304 108.511 551.268 102.66 547.561 102.714Z" fill="#E4E4E4"/>
<path d="M547.561 115.877H473.794C473.032 115.877 472.301 116.179 471.762 116.718C471.223 117.256 470.92 117.987 470.92 118.748C470.92 119.51 471.223 120.24 471.762 120.778C472.301 121.317 473.032 121.619 473.794 121.619H547.561C551.304 121.673 551.268 115.823 547.561 115.877Z" fill="#E4E4E4"/>
<path d="M547.561 129.039H473.794C473.032 129.039 472.301 129.342 471.762 129.88C471.223 130.419 470.92 131.149 470.92 131.911C470.92 132.672 471.223 133.402 471.762 133.941C472.301 134.479 473.032 134.782 473.794 134.782H547.561C551.304 134.836 551.268 128.985 547.561 129.039Z" fill="#E4E4E4"/>
<path d="M436.491 49.0001H345.37C344.735 49.0017 344.127 49.2544 343.678 49.7028C343.229 50.1513 342.977 50.7591 342.975 51.3933V88.3433C342.977 88.9775 343.229 89.5853 343.678 90.0338C344.127 90.4822 344.735 90.7349 345.37 90.7365H436.491C437.126 90.7359 437.735 90.4836 438.184 90.0349C438.633 89.5862 438.886 88.9778 438.886 88.3433V51.3933C438.886 50.7588 438.633 50.1504 438.184 49.7017C437.735 49.2531 437.126 49.0007 436.491 49.0001Z" fill="#E4E4E4"/>
<path d="M427.814 102.714H354.047C353.285 102.714 352.554 103.017 352.015 103.555C351.476 104.094 351.174 104.824 351.174 105.586C351.174 106.347 351.476 107.077 352.015 107.616C352.554 108.154 353.285 108.457 354.047 108.457H427.814C431.557 108.511 431.521 102.66 427.814 102.714Z" fill="#E4E4E4"/>
<path d="M427.814 115.877H354.047C353.285 115.877 352.554 116.179 352.015 116.718C351.476 117.256 351.174 117.987 351.174 118.748C351.174 119.51 351.476 120.24 352.015 120.778C352.554 121.317 353.285 121.619 354.047 121.619H427.814C431.557 121.673 431.521 115.823 427.814 115.877Z" fill="#E4E4E4"/>
<path d="M427.814 129.039H354.047C353.285 129.039 352.554 129.342 352.015 129.88C351.476 130.419 351.174 131.149 351.174 131.911C351.174 132.672 351.476 133.402 352.015 133.941C352.554 134.479 353.285 134.782 354.047 134.782H427.814C431.557 134.836 431.521 128.985 427.814 129.039Z" fill="#E4E4E4"/>
<path d="M208.003 118.882C207.887 119.224 207.801 119.575 207.748 119.933L170.438 113.342L138.3 96.0254C136.278 94.9359 133.919 94.6531 131.696 95.2339C129.474 95.8147 127.555 97.216 126.326 99.1551C125.098 101.094 124.65 103.427 125.075 105.682C125.499 107.938 126.764 109.949 128.614 111.309H128.614C134.609 115.718 141.255 119.166 148.313 121.529L171.612 129.327L212.423 126.713C213.556 126.958 214.736 126.87 215.82 126.46C216.904 126.05 217.847 125.335 218.535 124.402C219.222 123.47 219.626 122.358 219.696 121.202C219.766 120.046 219.501 118.893 218.931 117.884C218.362 116.875 217.512 116.052 216.486 115.514C215.459 114.976 214.299 114.746 213.144 114.851C211.99 114.956 210.89 115.393 209.978 116.108C209.066 116.823 208.38 117.786 208.003 118.882V118.882Z" fill="#FFB8B8"/>
<path d="M299.776 118.998H183.628C182.817 118.999 182.04 119.321 181.467 119.894C180.894 120.466 180.572 121.242 180.571 122.052V169.14C180.572 169.95 180.894 170.726 181.467 171.299C182.04 171.872 182.817 172.194 183.628 172.195H299.776C300.585 172.192 301.361 171.87 301.933 171.297C302.504 170.725 302.826 169.949 302.827 169.14V122.052C302.826 121.243 302.504 120.468 301.933 119.895C301.361 119.323 300.585 119 299.776 118.998V118.998Z" fill="#3CB8E2"/>
<path d="M288.716 187.462H194.688C193.716 187.462 192.784 187.848 192.096 188.534C191.409 189.221 191.023 190.153 191.023 191.124C191.023 192.095 191.409 193.026 192.096 193.713C192.784 194.4 193.716 194.786 194.688 194.786H288.716C293.488 194.852 293.439 187.396 288.716 187.462Z" fill="#3CB8E2"/>
<path d="M288.716 204.238H194.688C193.716 204.238 192.784 204.624 192.096 205.311C191.409 205.998 191.023 206.929 191.023 207.9C191.023 208.871 191.409 209.803 192.096 210.49C192.784 211.176 193.716 211.562 194.688 211.562H288.716C293.488 211.628 293.439 204.172 288.716 204.238Z" fill="#3CB8E2"/>
<path d="M288.716 221.021H194.688C194.207 221.021 193.731 221.115 193.286 221.299C192.842 221.483 192.438 221.753 192.098 222.092C191.758 222.432 191.489 222.835 191.305 223.279C191.121 223.723 191.026 224.199 191.026 224.68C191.026 225.16 191.121 225.636 191.305 226.08C191.489 226.524 191.758 226.927 192.098 227.267C192.438 227.607 192.842 227.876 193.286 228.06C193.731 228.244 194.207 228.338 194.688 228.338H288.716C293.488 228.405 293.439 220.954 288.716 221.021Z" fill="#3CB8E2"/>
<path d="M154.867 79.3101C159.606 70.6473 156.42 59.7859 147.751 55.0504C139.082 50.3149 128.212 53.4986 123.473 62.1614C118.734 70.8241 121.92 81.6855 130.59 86.421C139.259 91.1565 150.128 87.9728 154.867 79.3101Z" fill="#FFB8B8"/>
<path d="M142.162 49.0181H130.606C123.03 49.0181 116.888 55.9222 116.888 64.4389C111.172 70.1747 112.887 77.3604 117.423 85.0962C125.609 86.1138 133.615 88.2537 141.217 91.4555L142.295 86.8528L144.423 92.9144C146.315 93.8305 148.191 94.8323 150.051 95.9197C147.88 85.7269 146.987 75.5579 148.477 67.6585H152.391V63.3784L153.72 67.6585H160.815C160.816 65.2106 160.333 62.7867 159.396 60.5251C158.458 58.2636 157.084 56.2087 155.352 54.4777C153.62 52.7468 151.563 51.3738 149.3 50.437C147.037 49.5002 144.611 49.0181 142.162 49.0181Z" fill="#2F2E41"/>
<path d="M140.958 93.5145L119.322 92.5771L118.74 94.7861C113.954 112.959 113.214 131.959 116.575 150.449V150.449C117.217 151.053 117.687 151.818 117.935 152.664C118.183 153.51 118.2 154.408 117.986 155.263L117.675 156.501L117.703 156.546C118.724 158.155 119.07 160.1 118.667 161.961V161.961L119.749 167.915L154.798 152.442L162.621 125.384L140.958 93.5145Z" fill="#CACACA"/>
<path d="M194.577 150.544C194.334 150.812 194.116 151.1 193.925 151.407L162.331 130.507L139.76 101.828C138.34 100.024 136.288 98.8253 134.019 98.4733C131.749 98.1213 129.43 98.6425 127.53 99.9317C125.629 101.221 124.289 103.182 123.779 105.42C123.269 107.658 123.627 110.006 124.782 111.99C128.522 118.421 133.243 124.23 138.774 129.206L157.035 145.636L195.508 159.487C196.45 160.162 197.568 160.551 198.726 160.607C199.884 160.663 201.033 160.383 202.036 159.801C203.038 159.219 203.851 158.36 204.377 157.328C204.902 156.295 205.118 155.133 204.998 153.98C204.878 152.828 204.428 151.735 203.701 150.833C202.973 149.93 202.001 149.257 200.9 148.894C199.799 148.531 198.617 148.494 197.495 148.786C196.373 149.079 195.36 149.69 194.577 150.544Z" fill="#FFB8B8"/>
<path d="M263.282 90.5951C259.862 90.5951 256.519 89.5817 253.676 87.6831C250.832 85.7845 248.616 83.086 247.307 79.9287C245.998 76.7714 245.656 73.2973 246.323 69.9455C246.99 66.5938 248.637 63.5151 251.055 61.0986C253.474 58.6821 256.555 57.0365 259.909 56.3698C263.263 55.7031 266.74 56.0453 269.899 57.353C273.059 58.6608 275.759 60.8755 277.659 63.7169C279.559 66.5584 280.573 69.8991 280.573 73.3164C280.573 77.899 278.752 82.2939 275.509 85.5343C272.266 88.7747 267.868 90.5951 263.282 90.5951Z" fill="#E4E4E4"/>
<path d="M270.105 71.6121H264.988V66.4988C264.988 66.0467 264.808 65.6132 264.488 65.2935C264.168 64.9739 263.735 64.7943 263.282 64.7943C262.83 64.7943 262.396 64.9739 262.076 65.2935C261.756 65.6132 261.576 66.0467 261.576 66.4988V71.6121H256.459C256.008 71.6129 255.575 71.7929 255.255 72.1124C254.936 72.432 254.757 72.865 254.757 73.3165C254.757 73.768 254.936 74.201 255.255 74.5206C255.575 74.8401 256.008 75.0201 256.459 75.0209H261.576V80.1342C261.576 80.5863 261.756 81.0198 262.076 81.3395C262.396 81.6591 262.83 81.8387 263.282 81.8387C263.735 81.8387 264.168 81.6591 264.488 81.3395C264.808 81.0198 264.988 80.5863 264.988 80.1342V75.0209H270.105C270.329 75.0213 270.551 74.9776 270.759 74.8921C270.966 74.8066 271.154 74.6812 271.313 74.5228C271.472 74.3645 271.598 74.1765 271.684 73.9695C271.77 73.7625 271.814 73.5406 271.814 73.3165C271.814 73.0924 271.77 72.8705 271.684 72.6635C271.598 72.4565 271.472 72.2685 271.313 72.1102C271.154 71.9518 270.966 71.8264 270.759 71.7409C270.551 71.6554 270.329 71.6116 270.105 71.6121V71.6121Z" fill="white"/>
<path d="M177.056 283.489C177.618 282.008 177.825 280.416 177.661 278.841C177.497 277.266 176.966 275.75 176.111 274.417L160.816 195.134L154.798 165.069H118.694C118.694 165.069 96.1283 190.023 100.942 221.892L99.5947 266.774C98.3167 269.852 98.0013 273.245 98.6901 276.506L99.2263 279.045L99.0194 279.427C98.0343 281.249 97.5051 283.282 97.477 285.352C97.4488 287.423 97.9226 289.469 98.8578 291.317L97.3317 342.153L108.163 341.552L124.109 282.323L134.64 229.108L152.391 270.297L152.993 279.918L152.701 288.398L138.852 337.944L150.586 342.453L177.056 283.489Z" fill="#2F2E41"/>
<path d="M264.574 362.284C264.573 362.474 264.498 362.656 264.364 362.79C264.23 362.924 264.048 362.999 263.858 363H0.716038C0.526123 363 0.343985 362.925 0.209695 362.79C0.0754055 362.656 -3.67165e-05 362.474 -3.67165e-05 362.284C-3.67165e-05 362.095 0.0754055 361.913 0.209695 361.778C0.343985 361.644 0.526123 361.569 0.716038 361.569H263.858C263.952 361.569 264.045 361.587 264.132 361.623C264.219 361.659 264.298 361.711 264.365 361.778C264.431 361.844 264.484 361.923 264.52 362.01C264.556 362.097 264.574 362.19 264.574 362.284V362.284Z" fill="#17A1CF"/>
</g>
<defs>
<clipPath id="clip0_616:3058">
<rect width="570" height="363" fill="white"/>
</clipPath>
</defs>
</svg>
