<svg width="13" height="12" viewBox="0 0 13 12" fill="none" xmlns="http://www.w3.org/2000/svg">
<path d="M8.87696 9.97836L6.88072 11.8345C6.64446 12.0542 6.26145 12.0542 6.02519 11.8345L4.02895 9.97836C3.64785 9.62401 3.91776 9.0181 4.45672 9.01813H5.74633L5.74631 6.65551H3.2054V7.85462C3.2054 8.35576 2.5538 8.60673 2.17267 8.25238L0.176432 6.39622C-0.0598278 6.17654 -0.0598278 5.82038 0.176432 5.60073L2.17267 3.74457C2.55377 3.39022 3.2054 3.64119 3.2054 4.14233V5.34301H5.74631V2.98041H4.45499C3.91602 2.98041 3.64611 2.37453 4.02721 2.02015L6.02345 0.163997C6.25971 -0.0556829 6.64272 -0.0556829 6.87898 0.163997L8.87522 2.02015C9.25632 2.37451 8.98641 2.98041 8.44745 2.98041H7.15784V5.34301H9.69874V4.1439C9.69874 3.64276 10.3504 3.39179 10.7314 3.74614L12.7277 5.6023C12.9639 5.82198 12.9639 6.17813 12.7277 6.39779L10.7314 8.25395C10.3504 8.6083 9.69872 8.35733 9.69874 7.85619V6.65551H7.15786V9.0181H8.44919C8.98815 9.0181 9.25806 9.62399 8.87696 9.97836Z" fill="#4B6377"/>
</svg>
