<svg  viewBox="0 0 12 20" fill="none" xmlns="http://www.w3.org/2000/svg">
<path d="M5.909 9.31886C5.76829 9.5418 5.67375 9.79071 5.631 10.0509C5.63429 10.3042 5.73365 10.5469 5.909 10.7299L11.426 16.4619C11.7929 16.8524 11.998 17.3676 11.9998 17.9034C12.0017 18.4392 11.8002 18.9558 11.436 19.3489L11.408 19.3789C11.2254 19.5743 11.0048 19.7302 10.7597 19.8371C10.5146 19.9439 10.2501 19.9994 9.98273 20.0002C9.71533 20.0009 9.4506 19.9469 9.20488 19.8414C8.95916 19.7359 8.73764 19.5812 8.554 19.3869L0.287 10.7739C0.104601 10.577 0.00225353 10.3192 0 10.0509C0.0437731 9.77616 0.141301 9.5128 0.287 9.27586L8.554 0.610857C8.73799 0.416869 8.95975 0.262597 9.20561 0.157541C9.45147 0.0524853 9.71623 -0.00112988 9.98359 -5.72205e-06C10.251 0.00111844 10.5153 0.056958 10.7602 0.164078C11.0052 0.271197 11.2256 0.427328 11.408 0.622856L11.436 0.658857C11.8 1.0546 12.0011 1.57315 11.9993 2.11082C11.9974 2.64848 11.7927 3.16563 11.426 3.55886L5.909 9.31886Z" fill="#040505"/>
</svg>
