<svg viewBox="0 0 12 20" fill="none" xmlns="http://www.w3.org/2000/svg">
<path d="M6.09088 9.31886C6.23159 9.5418 6.32612 9.79071 6.36888 10.0509C6.36559 10.3042 6.26623 10.5469 6.09088 10.7299L0.573877 16.4619C0.206982 16.8524 0.00190942 17.3676 5.34058e-05 17.9034C-0.00180261 18.4392 0.199696 18.9558 0.563877 19.3489L0.591877 19.3789C0.774428 19.5743 0.995071 19.7302 1.2402 19.8371C1.48533 19.9439 1.74974 19.9994 2.01715 20.0002C2.28455 20.0009 2.54928 19.9469 2.795 19.8414C3.04072 19.7359 3.26223 19.5812 3.44588 19.3869L11.7129 10.7739C11.8953 10.577 11.9976 10.3192 11.9999 10.0509C11.9561 9.77616 11.8586 9.5128 11.7129 9.27586L3.44588 0.610857C3.26189 0.416869 3.04013 0.262597 2.79427 0.157541C2.54841 0.0524853 2.28365 -0.00112988 2.01628 -5.72205e-06C1.74892 0.00111844 1.48462 0.056958 1.23965 0.164078C0.99468 0.271197 0.774231 0.427328 0.591877 0.622856L0.563877 0.658857C0.199904 1.0546 -0.00126847 1.57315 0.000585556 2.11082C0.00243958 2.64848 0.207184 3.16563 0.573877 3.55886L6.09088 9.31886Z" fill="#040505"/>
</svg>
