<?xml version="1.0" encoding="iso-8859-1"?>
<!-- Generator: Adobe Illustrator 19.0.0, SVG Export Plug-In . SVG Version: 6.00 Build 0)  -->
<svg version="1.1" id="Capa_1" xmlns="http://www.w3.org/2000/svg" xmlns:xlink="http://www.w3.org/1999/xlink" x="0px" y="0px"
	 viewBox="0 0 511.999 511.999" style="enable-background:new 0 0 511.999 511.999;" xml:space="preserve">
<g>
	<g>
		<path d="M430.994,172.308c13.76-18.49,21.338-41.366,21.338-64.414C452.332,48.401,403.933,0,344.439,0H167.561
			C108.067,0,59.666,48.401,59.666,107.894c0,23.048,7.578,45.924,21.338,64.414l34.16,45.902
			c-31.685,34.93-48.986,79.64-48.986,127.277c0,33.943,9.071,67.256,26.233,96.339c16.651,28.216,40.448,51.787,68.82,68.164
			l3.48,2.009h182.574l3.48-2.009c28.372-16.377,52.17-39.948,68.82-68.164c17.163-29.083,26.234-62.396,26.234-96.339
			c0-47.637-17.302-92.347-48.986-127.277L430.994,172.308z M167.561,95h176.879l10.344,20.593l-45.307,63.417
			c-16.856-5.41-34.822-8.343-53.476-8.343c-18.654,0-36.619,2.933-53.476,8.343l-45.308-63.418L167.561,95z M222.695,387.486
			l-24.326-32.25l-7.368,8.201v24.048h-32.249v-97.304h32.248v35.308l31.972-35.308h35.726l-38.923,42.814l40.869,54.491H222.695z
			 M314.017,363.16c4.031,0,7.924-0.695,11.955-2.363v-24.604h28.496v41.146c-11.816,8.062-28.079,12.372-42.398,12.372
			c-31.415,0-54.352-20.99-54.352-50.877s22.937-50.877,55.047-50.877c19.184,0,34.613,6.672,44.482,18.766l-20.99,18.488
			c-6.116-7.089-13.205-10.704-21.824-10.704c-14.457,0-23.631,9.314-23.631,24.327C290.803,353.429,299.978,363.16,314.017,363.16z
			"/>
	</g>
</g>
<g>
</g>
<g>
</g>
<g>
</g>
<g>
</g>
<g>
</g>
<g>
</g>
<g>
</g>
<g>
</g>
<g>
</g>
<g>
</g>
<g>
</g>
<g>
</g>
<g>
</g>
<g>
</g>
<g>
</g>
</svg>
