<svg viewBox="0 0 328 48" fill="none" xmlns="http://www.w3.org/2000/svg">
<path fill-rule="evenodd" clip-rule="evenodd" d="M172.392 42.792V5.736C172.389 5.28306 172.432 4.831 172.522 4.387C172.636 3.84167 172.825 3.362 173.09 2.948C173.238 2.7168 173.411 2.50339 173.608 2.312C174.341 1.598 175.354 1.207 176.645 1.139C176.785 1.13165 176.924 1.12798 177.064 1.128C177.466 1.126 177.867 1.15509 178.264 1.215C178.995 1.329 179.609 1.556 180.104 1.896C180.428 2.12177 180.724 2.38417 180.988 2.678C181.243 2.95733 181.49 3.27867 181.731 3.642C181.892 3.88603 182.043 4.13622 182.184 4.392L195.88 29.416L209.576 4.392C210.216 3.24 210.909 2.408 211.656 1.896C212.038 1.63903 212.462 1.44899 212.908 1.334C213.258 1.23933 213.639 1.17733 214.051 1.148C214.244 1.13443 214.438 1.12776 214.632 1.128C215.763 1.128 216.693 1.36767 217.422 1.847C217.627 1.9822 217.818 2.13801 217.992 2.312C218.781 3.10133 219.176 4.24267 219.176 5.736V42.792C219.176 45.2173 218.246 46.6853 216.385 47.196C215.834 47.339 215.266 47.4076 214.696 47.4C214.084 47.4092 213.474 47.3311 212.884 47.168C211.063 46.6327 210.152 45.174 210.152 42.792V19.304L199.656 38.184C199.254 38.8207 198.832 39.3323 198.391 39.719C198.274 39.8218 198.151 39.9182 198.024 40.008C197.715 40.2213 197.371 40.3775 197.007 40.469C196.632 40.567 196.214 40.616 195.752 40.616C194.96 40.616 194.29 40.4717 193.741 40.183C193.64 40.1302 193.542 40.0718 193.448 40.008C193.136 39.7928 192.852 39.5387 192.604 39.252C192.336 38.9467 192.084 38.5907 191.848 38.184L181.352 19.496V42.792C181.352 45.2173 180.422 46.6853 178.561 47.196C178.01 47.339 177.442 47.4076 176.872 47.4C176.43 47.4033 175.988 47.3594 175.555 47.269C175.001 47.149 174.517 46.9463 174.102 46.661C173.9 46.522 173.713 46.3621 173.544 46.184C172.837 45.4373 172.456 44.4193 172.4 43.13C172.395 43.0174 172.392 42.9047 172.392 42.792ZM32.872 37.928V29.096H27.112C24.4667 29.096 23.144 27.9013 23.144 25.512C23.1354 25.0091 23.209 24.5082 23.362 24.029C23.828 22.6543 25.0403 21.9543 26.999 21.929C27.0367 21.9284 27.0743 21.9281 27.112 21.928H37.16C37.6859 21.9201 38.2102 21.9875 38.717 22.128C39.8663 22.4667 40.5937 23.234 40.899 24.43C41.0147 24.9099 41.0701 25.4024 41.064 25.896V40.744C41.0666 41.1692 41.0298 41.5936 40.954 42.012C40.856 42.534 40.693 43.0067 40.465 43.43C40.4414 43.4738 40.4171 43.5171 40.392 43.56C40.0564 44.1294 39.5688 44.5941 38.984 44.902C38.7479 45.0293 38.5017 45.137 38.248 45.224C37.1161 45.6232 35.965 45.966 34.799 46.251C33.8012 46.4961 32.7957 46.7086 31.784 46.888C29.3947 47.3147 27.0267 47.528 24.68 47.528C22.7359 47.5379 20.7946 47.379 18.878 47.053C16.61 46.655 14.5447 46.007 12.682 45.109C12.3789 44.9629 12.0794 44.8091 11.784 44.648C8.264 42.728 5.58667 40.04 3.752 36.584C1.91733 33.128 1 29.0747 1 24.424C1 19.6453 1.94933 15.5067 3.848 12.008C5.74667 8.50933 8.488 5.8 12.072 3.88C15.656 1.96 19.9653 1 25 1C27.304 1 29.608 1.256 31.912 1.768C34.216 2.28 36.4347 3.13333 38.568 4.328C39.72 4.968 40.4133 5.82133 40.648 6.888C40.878 7.93267 40.7703 8.94633 40.325 9.929C40.3155 9.95006 40.3058 9.97106 40.296 9.992C39.8267 10.9947 39.112 11.72 38.152 12.168C37.278 12.576 36.2533 12.5327 35.078 12.038C34.96 11.9884 34.8433 11.9357 34.728 11.88C32.4357 10.696 29.9342 9.97146 27.364 9.747C26.5995 9.67489 25.8319 9.63918 25.064 9.64C21.786 9.64 19.0967 10.2943 16.996 11.603C16.1779 12.1109 15.4359 12.732 14.792 13.448C13.6282 14.7692 12.7617 16.325 12.251 18.01C11.8557 19.2527 11.5933 20.6257 11.464 22.129C11.3991 22.8923 11.3671 23.658 11.368 24.424C11.3593 25.8192 11.4728 27.2125 11.707 28.588C11.9717 30.084 12.392 31.423 12.968 32.605C13.4542 33.6161 14.0907 34.5476 14.856 35.368C16.9253 37.5693 19.8807 38.7917 23.722 39.035C24.2114 39.0655 24.7016 39.0805 25.192 39.08C27.624 39.08 30.184 38.696 32.872 37.928ZM126.824 28.136H129.128V27.048C129.131 26.5861 129.1 26.1246 129.038 25.667C128.879 24.555 128.511 23.7097 127.934 23.131C127.906 23.1028 127.877 23.0751 127.848 23.048C127.511 22.7458 127.121 22.5091 126.697 22.35C125.988 22.07 125.096 21.911 124.021 21.873C123.846 21.8669 123.671 21.8639 123.496 21.864C122.852 21.8658 122.209 21.9049 121.57 21.981C120.949 22.0546 120.332 22.1543 119.72 22.28C118.355 22.5573 116.883 23.016 115.304 23.656C114.109 24.168 113.107 24.2 112.296 23.752C111.91 23.5443 111.571 23.2603 111.299 22.9173C111.027 22.5743 110.827 22.1796 110.712 21.757C110.707 21.7394 110.701 21.7217 110.696 21.704C110.598 21.3558 110.548 20.9957 110.548 20.634C110.548 20.0667 110.672 19.4953 110.92 18.92C111.198 18.2867 111.662 17.7527 112.25 17.389C112.586 17.1763 112.945 17.0029 113.32 16.872C114.336 16.4806 115.37 16.1355 116.417 15.838C117.263 15.5978 118.119 15.3982 118.984 15.24C120.755 14.92 122.387 14.76 123.88 14.76C126.967 14.76 129.556 15.2027 131.647 16.088C132.79 16.5597 133.843 17.2255 134.76 18.056C136.011 19.2311 136.946 20.7033 137.476 22.336C137.856 23.4413 138.111 24.6723 138.242 26.029C138.312 26.7719 138.346 27.5178 138.344 28.264V42.472C138.352 43.108 138.283 43.7427 138.138 44.362C137.729 46.0067 136.712 46.9837 135.089 47.293C134.685 47.367 134.275 47.4028 133.864 47.4C133.236 47.4102 132.611 47.3217 132.011 47.138C130.715 46.7173 129.887 45.7883 129.527 44.351C129.382 43.7354 129.312 43.1044 129.32 42.472V42.088C128.68 43.752 127.603 45.0747 126.088 46.056C124.573 47.0373 122.728 47.528 120.552 47.528C119.448 47.534 118.346 47.423 117.265 47.197C116.252 46.9841 115.271 46.6437 114.344 46.184C113.223 45.6335 112.199 44.9032 111.314 44.022C110.86 43.5656 110.45 43.0681 110.088 42.536C109.043 41 108.52 39.272 108.52 37.352C108.52 35.18 109.071 33.4213 110.174 32.076C110.219 32.0206 110.265 31.9659 110.312 31.912C110.848 31.3139 111.479 30.8093 112.181 30.419C112.778 30.077 113.457 29.7777 114.216 29.521C114.846 29.3109 115.487 29.1369 116.136 29C118.705 28.4493 122.073 28.162 126.24 28.138C126.435 28.1368 126.629 28.1361 126.824 28.136ZM101.288 33.192H82.472C82.5687 33.9302 82.7368 34.6573 82.974 35.363C83.4527 36.7523 84.192 37.8313 85.192 38.6C85.9251 39.1515 86.7532 39.564 87.635 39.817C88.6983 40.1363 89.9213 40.296 91.304 40.296C92.184 40.296 93.1667 40.2093 94.252 40.036C94.4323 40.0071 94.6123 39.9765 94.792 39.944C96.0933 39.7093 97.3413 39.2933 98.536 38.696C98.796 38.5692 99.0639 38.4593 99.338 38.367C100.15 38.097 100.867 38.066 101.488 38.274C101.55 38.2949 101.612 38.3183 101.672 38.344C102.115 38.5255 102.512 38.804 102.833 39.159C103.094 39.4553 103.297 39.7974 103.432 40.168C103.717 40.928 103.749 41.7133 103.526 42.524C103.498 42.625 103.467 42.7251 103.432 42.824C103.133 43.6807 102.49 44.398 101.503 44.976C101.432 45.0173 101.36 45.0573 101.288 45.096C100.059 45.7576 98.7597 46.2783 97.414 46.648C97.0544 46.7481 96.6923 46.8388 96.328 46.92C94.5147 47.3253 92.776 47.528 91.112 47.528C87.474 47.528 84.338 46.8823 81.704 45.591C81.6505 45.565 81.5972 45.5386 81.544 45.512C79.6837 44.5962 78.0373 43.2987 76.712 41.704C76.2247 41.1109 75.786 40.4795 75.4 39.816C74.4424 38.1498 73.8016 36.3206 73.51 34.421C73.3375 33.3373 73.2526 32.2414 73.256 31.144C73.256 27.9013 73.9493 25.0533 75.336 22.6C76.7227 20.1467 78.6213 18.2267 81.032 16.84C82.8538 15.8048 84.8655 15.1474 86.947 14.907C87.7555 14.8077 88.5694 14.7586 89.384 14.76C93.9493 14.76 97.576 16.2 100.264 19.08C101.996 20.9615 103.2 23.2679 103.753 25.765C104.11 27.2697 104.291 28.9067 104.296 30.676C104.296 30.704 104.296 30.732 104.296 30.76C104.296 32.3813 103.293 33.192 101.288 33.192ZM324.328 33.192H305.512C305.609 33.9302 305.777 34.6573 306.014 35.363C306.493 36.7523 307.232 37.8313 308.232 38.6C308.965 39.1515 309.793 39.564 310.675 39.817C311.738 40.1363 312.961 40.296 314.344 40.296C315.224 40.296 316.207 40.2093 317.292 40.036C317.472 40.0071 317.652 39.9765 317.832 39.944C319.133 39.7093 320.381 39.2933 321.576 38.696C321.836 38.5692 322.104 38.4593 322.378 38.367C323.19 38.097 323.907 38.066 324.528 38.274C324.59 38.2949 324.652 38.3183 324.712 38.344C325.155 38.5255 325.552 38.804 325.873 39.159C326.134 39.4553 326.337 39.7974 326.472 40.168C326.757 40.928 326.789 41.7133 326.566 42.524C326.538 42.625 326.507 42.7251 326.472 42.824C326.173 43.6807 325.53 44.398 324.543 44.976C324.472 45.0173 324.4 45.0573 324.328 45.096C323.099 45.7576 321.8 46.2783 320.454 46.648C320.094 46.7481 319.732 46.8388 319.368 46.92C317.555 47.3253 315.816 47.528 314.152 47.528C310.514 47.528 307.378 46.8823 304.744 45.591C304.691 45.565 304.637 45.5386 304.584 45.512C302.724 44.5962 301.077 43.2987 299.752 41.704C299.265 41.1109 298.826 40.4795 298.44 39.816C297.482 38.1498 296.842 36.3206 296.55 34.421C296.377 33.3373 296.293 32.2414 296.296 31.144C296.296 27.9013 296.989 25.0533 298.376 22.6C299.763 20.1467 301.661 18.2267 304.072 16.84C305.894 15.8048 307.905 15.1474 309.987 14.907C310.796 14.8077 311.609 14.7586 312.424 14.76C316.989 14.76 320.616 16.2 323.304 19.08C325.036 20.9615 326.24 23.2679 326.793 25.765C327.15 27.2697 327.331 28.9067 327.336 30.676C327.336 30.704 327.336 30.732 327.336 30.76C327.336 32.3813 326.333 33.192 324.328 33.192ZM147.752 34.664V22.632H145.064C142.915 22.632 141.684 21.7613 141.369 20.02C141.313 19.6991 141.286 19.3738 141.288 19.048C141.288 17.108 142.089 15.9417 143.69 15.549C144.14 15.4446 144.602 15.3946 145.064 15.4H147.752V10.536C147.743 9.88845 147.822 9.24266 147.985 8.616C148.539 6.61067 150.083 5.608 152.616 5.608C153.265 5.59825 153.913 5.68279 154.538 5.859C155.955 6.28233 156.848 7.243 157.219 8.741C157.357 9.32919 157.423 9.93191 157.416 10.536V15.4H163.496C163.984 15.3934 164.471 15.4523 164.943 15.575C166.046 15.8783 166.747 16.5777 167.044 17.673C167.159 18.1221 167.214 18.5844 167.208 19.048C167.208 20.954 166.421 22.0997 164.847 22.485C164.404 22.5878 163.951 22.6372 163.496 22.632H157.416V34.28C157.416 35.432 157.588 36.399 157.932 37.181C158.111 37.5964 158.358 37.9787 158.664 38.312C159.076 38.745 159.586 39.0738 160.15 39.271C160.559 39.4223 161.019 39.529 161.529 39.591C161.906 39.6355 162.285 39.6572 162.664 39.656C163.304 39.656 163.901 39.592 164.456 39.464C165.011 39.336 165.523 39.2507 165.992 39.208C166.589 39.1653 167.08 39.3573 167.464 39.784C167.587 39.9266 167.683 40.0898 167.749 40.266C167.88 40.594 167.966 41.0237 168.009 41.555C168.031 41.8388 168.041 42.1234 168.04 42.408C168.04 43.336 167.911 44.143 167.653 44.829C167.615 44.9301 167.573 45.0298 167.528 45.128C167.241 45.7542 166.75 46.2646 166.136 46.576C166.006 46.6444 165.873 46.7058 165.736 46.76C165.207 46.9633 164.493 47.1377 163.595 47.283C163.551 47.2901 163.508 47.2971 163.464 47.304C162.729 47.4187 162.076 47.4893 161.503 47.516C161.335 47.5239 161.168 47.5279 161 47.528C159.26 47.5514 157.524 47.3442 155.838 46.912C151.901 45.842 149.401 43.375 148.34 39.511C147.929 37.9288 147.731 36.2987 147.752 34.664ZM272.232 43.432L262.568 21.16C262.195 20.3027 262.008 19.4993 262.008 18.75C262.004 18.0606 262.174 17.3815 262.504 16.776C263.065 15.7413 264.117 15.132 265.66 14.948C266.015 14.9069 266.371 14.8869 266.728 14.888C267.734 14.888 268.577 15.0913 269.258 15.498C269.356 15.5567 269.452 15.6202 269.544 15.688C269.812 15.8908 270.051 16.1297 270.254 16.398C270.635 16.888 270.987 17.5337 271.312 18.335C271.365 18.4652 271.415 18.5963 271.464 18.728L278.056 35.368L284.84 18.664C284.995 18.2841 285.169 17.912 285.36 17.549C285.815 16.6917 286.303 16.0713 286.824 15.688C287.549 15.1547 288.552 14.888 289.832 14.888C290.297 14.8827 290.76 14.944 291.207 15.07C291.652 15.1966 292.067 15.4133 292.425 15.7068C292.783 16.0002 293.077 16.3642 293.288 16.776C293.606 17.3574 293.772 18.0101 293.77 18.673C293.77 19.4297 293.567 20.2373 293.16 21.096L283.304 43.432C283.018 44.1381 282.631 44.7989 282.155 45.394C281.068 46.7207 279.61 47.3893 277.78 47.4C277.765 47.4 277.751 47.4 277.736 47.4C276.678 47.4226 275.636 47.1396 274.735 46.585C274.038 46.145 273.432 45.526 272.919 44.728C272.656 44.3152 272.426 43.8817 272.232 43.432ZM238.149 47.085C239.613 47.388 241.105 47.5365 242.6 47.528C245.971 47.528 248.904 46.856 251.4 45.512C253.896 44.168 255.837 42.2693 257.224 39.816C257.999 38.4303 258.556 36.9339 258.877 35.379C259.169 33.9649 259.312 32.524 259.304 31.08C259.308 29.9589 259.222 28.8394 259.047 27.732C258.762 25.8628 258.144 24.0598 257.224 22.408C255.837 19.9547 253.896 18.0667 251.4 16.744C250.026 16.0231 248.556 15.5006 247.035 15.192C245.575 14.8963 244.089 14.7515 242.6 14.76C241.38 14.7555 240.162 14.8509 238.957 15.045C237.157 15.3271 235.415 15.901 233.8 16.744C231.304 18.0667 229.373 19.9547 228.008 22.408C227.268 23.7515 226.729 25.1966 226.409 26.697C226.102 28.1376 225.952 29.6071 225.96 31.08C225.96 34.4507 226.643 37.3627 228.008 39.816C229.373 42.2693 231.304 44.168 233.8 45.512C235.167 46.241 236.632 46.7707 238.149 47.085ZM49 42.472V19.752C49 17.192 49.984 15.6427 51.952 15.104C52.5344 14.953 53.1344 14.8803 53.736 14.888C54.3781 14.8784 55.0181 14.9622 55.636 15.137C57.032 15.5557 57.9127 16.5037 58.278 17.981C58.4138 18.5614 58.479 19.156 58.472 19.752V20.904C58.9902 19.5458 59.8244 18.3305 60.9055 17.3586C61.9866 16.3867 63.2835 15.6862 64.689 15.315C65.7711 15.0064 66.8844 14.8203 68.008 14.76C68.1175 14.7512 68.2272 14.7462 68.337 14.745C69.245 14.735 69.9567 15.0067 70.472 15.56C71.026 16.1547 71.3333 17.1133 71.394 18.436C71.3964 18.4907 71.3984 18.5453 71.4 18.6C71.4092 18.7368 71.4145 18.8739 71.416 19.011C71.4253 20.141 71.1533 21.0493 70.6 21.736C70.2954 22.1055 69.9129 22.4033 69.48 22.608C68.9393 22.8733 68.278 23.052 67.496 23.144L66.024 23.272C65.0262 23.3572 64.0437 23.5713 63.101 23.909C60.271 24.9663 58.856 27.186 58.856 30.568V42.472C58.8651 43.1195 58.7871 43.7653 58.624 44.392C58.0693 46.3973 56.5253 47.4 53.992 47.4C53.336 47.4089 52.6818 47.3295 52.047 47.164C50.0157 46.6027 49 45.0387 49 42.472ZM242.6 40.296C243.502 40.3071 244.397 40.1399 245.234 39.804C246.157 39.417 246.976 38.8182 247.624 38.056C248.176 37.4051 248.602 36.6565 248.879 35.849C249.124 35.1677 249.305 34.4037 249.421 33.557C249.529 32.7358 249.58 31.9082 249.576 31.08C249.58 30.2455 249.526 29.4118 249.413 28.585C249.294 27.749 249.11 26.9957 248.86 26.325C248.583 25.5464 248.164 24.8259 247.624 24.2C247.048 23.5311 246.338 22.99 245.54 22.6113C244.743 22.2327 243.875 22.0248 242.992 22.001C242.861 21.9949 242.731 21.9919 242.6 21.992C241.744 21.9821 240.895 22.1306 240.093 22.43C239.131 22.8047 238.277 23.413 237.608 24.2C237.065 24.842 236.646 25.5801 236.374 26.376C236.135 27.0433 235.958 27.791 235.844 28.619C235.736 29.4348 235.684 30.2571 235.688 31.08C235.688 34.1973 236.312 36.5037 237.56 37.999C237.576 38.0181 237.592 38.0371 237.608 38.056C238.163 38.7228 238.853 39.2655 239.631 39.649C240.41 40.0324 241.26 40.2481 242.127 40.282C242.284 40.2913 242.442 40.296 242.6 40.296ZM82.472 28.2H96.296C96.0707 24.062 94.3523 21.748 91.141 21.258C90.6865 21.1908 90.2275 21.158 89.768 21.16C89.0189 21.1534 88.2724 21.2486 87.549 21.443C86.5151 21.7224 85.5709 22.2643 84.808 23.016C84.0594 23.764 83.4795 24.6635 83.107 25.654C82.847 26.32 82.6527 27.053 82.524 27.853C82.5052 27.9684 82.4878 28.0841 82.472 28.2ZM305.512 28.2H319.336C319.111 24.062 317.392 21.748 314.181 21.258C313.726 21.1908 313.267 21.158 312.808 21.16C312.059 21.1534 311.312 21.2486 310.589 21.443C309.555 21.7224 308.611 22.2643 307.848 23.016C307.099 23.764 306.519 24.6635 306.147 25.654C305.887 26.32 305.693 27.053 305.564 27.853C305.545 27.9684 305.528 28.0841 305.512 28.2ZM129.128 34.408V33.128H126.888C124.361 33.128 122.402 33.2983 121.011 33.639C120.636 33.7276 120.268 33.8456 119.912 33.992C118.636 34.5307 117.956 35.4327 117.873 36.698C117.867 36.7879 117.864 36.8779 117.864 36.968C117.864 38.1627 118.28 39.144 119.112 39.912C119.813 40.5587 120.778 40.933 122.007 41.035C122.247 41.0546 122.487 41.0643 122.728 41.064C123.674 41.0759 124.611 40.8781 125.472 40.485C126.142 40.1683 126.752 39.736 127.272 39.208C128.308 38.1715 128.947 36.8045 129.079 35.345C129.112 35.0338 129.129 34.721 129.128 34.408Z" fill="#020202" stroke="#020202" stroke-width="0.25" stroke-linecap="round"/>
</svg>
