<svg width="169" height="37" viewBox="0 0 169 37" fill="none" xmlns="http://www.w3.org/2000/svg">
<g clip-path="url(#clip0_116:3469)">
<path d="M24.2803 0.0605659C23.478 0.188286 22.7606 0.552094 22.2322 1.09781C21.6035 1.74414 21.3335 2.44466 21.3798 3.29226C21.4145 3.93086 21.6074 4.40303 22.2901 5.49833C22.8108 6.33431 22.9265 6.55492 23.0422 6.90324C23.1965 7.35994 23.208 7.34446 22.7683 7.37155C22.5601 7.38316 19.9797 7.64634 17.0328 7.95596L11.6753 8.51715L11.3822 8.2114C10.9271 7.73923 10.5414 7.61925 9.94351 7.76632C9.40737 7.89404 8.72081 8.31977 8.43924 8.69519C8.36981 8.78807 8.29653 8.86935 8.27338 8.86935C8.2541 8.87322 7.70639 8.93128 7.0584 8.99707C6.41041 9.06674 5.87813 9.11318 5.87427 9.10157C5.86656 9.08996 5.72385 8.18818 5.55799 7.09289C5.38828 6.00146 5.24171 5.09969 5.23785 5.09582C5.22242 5.08033 4.0383 5.26998 4.01901 5.28546C4.0113 5.2932 4.21572 6.66328 4.47415 8.33138C4.73257 9.99948 5.08743 12.3023 5.26485 13.4479C5.44228 14.5935 5.5927 15.5417 5.60428 15.5495C5.62356 15.5688 6.78455 15.3908 6.81155 15.3598C6.82312 15.3482 6.65726 14.2142 6.44512 12.8325C6.22912 11.4547 6.05941 10.3246 6.06327 10.3207C6.07098 10.3168 6.56469 10.2549 7.1664 10.1853L8.2541 10.0614L8.38138 10.1736C8.45081 10.2356 8.89823 10.4794 9.37266 10.7155C11.3436 11.6985 12.1922 12.2946 13.2105 13.4131C13.681 13.9317 13.924 14.1213 14.3637 14.3265C15.2354 14.7367 16.1534 14.667 16.8631 14.1407C17.1138 13.9549 17.2797 13.7575 17.5613 13.3008C17.9045 12.7474 18.2208 12.4919 18.7107 12.3874C19.1195 12.2984 19.7058 12.4184 20.1455 12.6738C20.4117 12.8325 20.7318 13.146 20.8861 13.3976C21.0442 13.6608 21.1754 14.1291 21.1754 14.4426C21.1754 14.7135 21.2486 15.1199 21.4454 15.9172C21.6999 16.9583 21.7269 17.3801 21.5688 17.8252C21.4492 18.1735 21.0519 18.5219 19.783 19.4082C18.1861 20.5228 17.5497 21.2698 17.083 22.5779C16.8747 23.1662 16.7783 23.6577 16.7513 24.3118C16.7088 25.3529 16.9094 26.2005 17.3453 26.8469C17.7541 27.4545 17.8621 27.8299 18.0897 29.4013C18.1745 29.9973 18.3288 30.8758 18.4253 31.3558C18.5795 32.1105 18.6065 32.2924 18.6065 32.7104C18.6104 33.318 18.5603 33.4418 18.1321 33.8869C17.7888 34.243 17.5111 34.6378 17.3877 34.9513C17.2643 35.2647 17.2643 35.7988 17.3877 36.0272C17.704 36.6232 18.541 36.929 19.864 36.929C20.4541 36.929 20.6624 36.867 20.9015 36.6271C21.2024 36.3213 21.3605 35.7137 21.3142 35.017C21.2178 33.5231 21.2332 33.318 21.4916 32.6368C21.8118 31.7854 21.9275 31.0848 21.8966 30.1444C21.8658 29.0491 21.7732 28.8246 20.8089 27.5048C20.6238 27.2494 20.3885 26.874 20.2921 26.6727L20.1147 26.305V25.8793C20.1147 25.4845 20.1224 25.4419 20.2188 25.2717C20.3461 25.0627 20.5852 24.8498 21.1175 24.486C21.7346 24.0641 21.8851 23.9441 22.0934 23.7119C22.3248 23.4487 22.6063 22.8992 22.9843 21.9626C23.3199 21.1343 23.451 20.875 23.613 20.7008C23.9216 20.3757 24.3189 20.5112 24.666 21.0569C24.7162 21.1382 24.8897 21.4478 25.0556 21.7419C25.6149 22.7521 25.989 23.2436 26.4982 23.6345C26.7643 23.8358 27.393 24.2112 28.0988 24.5866C28.6658 24.8846 29.0438 25.1904 29.0438 25.3413C29.0438 25.4923 28.8934 26.007 28.7931 26.2083C28.6504 26.4947 28.4306 26.7153 27.9407 27.0829C27.312 27.5513 27.069 27.8725 26.8337 28.5498C26.7219 28.871 26.7103 28.9329 26.718 29.3626C26.7219 29.6373 26.7874 30.3224 26.88 31.0461C27.123 32.9851 27.1577 33.7437 27.0536 35.1486C26.9687 36.2826 27.717 37.0722 28.7931 36.9948C29.2405 36.9599 30.1932 36.7896 30.4555 36.7006C30.849 36.5613 31.0958 36.2285 31.1498 35.7601C31.1845 35.4505 31.1035 35.3731 30.3437 34.9977C29.6224 34.6416 29.3563 34.4365 29.1788 34.0804C29.0785 33.8831 29.0631 33.8018 29.0515 33.4651C29.0284 32.869 29.1364 32.513 29.688 31.3558C30.2974 30.0863 30.8335 28.724 31.7862 26.0535C32.0678 25.26 32.1257 25.0162 32.1295 24.6214C32.1334 23.7197 31.7245 22.756 30.903 21.7303C30.3167 20.9988 29.6224 20.4106 28.7198 19.8803C27.6399 19.2417 27.3544 19.0095 27.1809 18.6302C27.1114 18.4793 27.096 18.3825 27.0999 18.0613C27.1037 17.6085 27.1577 17.3337 27.4663 16.1184C28.0294 13.9046 28.4228 12.9951 28.9783 12.6119C29.0978 12.5306 29.1788 12.5074 29.3254 12.5074C29.6185 12.5074 29.8191 12.6274 30.1971 13.026C31.3928 14.2878 31.6589 14.5277 32.1681 14.8064C32.5384 15.0076 32.8431 15.0734 33.2866 15.0502C33.7341 15.027 33.9462 14.9535 34.49 14.6245C35.0185 14.3032 35.6009 13.8659 36.623 13.0144C37.6606 12.1514 38.135 11.7914 38.7637 11.4005C39.2806 11.0754 39.7743 10.6226 40.0365 10.2356C40.1098 10.1233 40.1908 10.0304 40.2101 10.0304C40.2603 10.0304 43.0451 10.7929 43.0644 10.8122C43.0721 10.8161 43.0451 10.9709 43.0027 11.1528C42.7442 12.3217 42.0808 15.3792 42.0808 15.4179C42.0808 15.4527 42.2852 15.5108 42.6825 15.5959C43.0142 15.6695 43.2881 15.7198 43.2919 15.712C43.2997 15.7082 43.4539 15.0115 43.6352 14.1717C43.8165 13.3318 44.1598 11.7643 44.3951 10.6884C45.3053 6.53943 45.5136 5.56799 45.5059 5.56025C45.4751 5.53316 44.3141 5.29707 44.2986 5.31642C44.2794 5.3319 43.4385 9.14027 43.3729 9.49247C43.3267 9.74791 43.3614 9.74791 42.3855 9.45764C41.888 9.31056 41.3094 9.14027 41.0973 9.08222C40.8851 9.02029 40.7077 8.96998 40.7038 8.96611C40.6961 8.96224 40.7193 8.83065 40.754 8.67197C40.8813 8.07594 40.7463 7.52636 40.3837 7.18964C39.9401 6.77165 39.3153 6.63619 38.7599 6.83358C38.3819 6.96517 38.0964 7.17029 37.6452 7.63086L37.2402 8.04111L37.028 7.9908C36.4263 7.85147 35.2538 7.62699 34.8295 7.5728C33.5913 7.41799 31.7785 7.33285 28.7546 7.29027L26.9456 7.26318L26.826 7.07354C26.7257 6.90711 26.7103 6.84519 26.7103 6.6091C26.7141 6.26464 26.8144 6.05565 27.1847 5.62992C27.8211 4.9023 28.0256 4.38755 28.0641 3.41224C28.0834 2.98264 28.0757 2.82396 28.0101 2.52207C27.7671 1.3455 27.0883 0.52113 26.097 0.203766C25.4914 0.0102501 24.9129 -0.0361938 24.2803 0.0605659ZM31.6474 8.63713C32.6811 8.69132 33.8112 8.78033 34.6559 8.87322C35.3502 8.95063 36.326 9.09383 36.3839 9.12866C36.4302 9.15575 35.9557 9.70533 35.6279 10.0072C35.1188 10.4678 34.6058 10.8316 34.1159 11.0715C33.4255 11.4121 33.0629 11.4702 32.6849 11.2922C32.4342 11.176 32.3262 11.029 32.0948 10.5065C31.7747 9.775 31.2771 9.14801 30.7217 8.77259C30.39 8.55199 30.39 8.55199 30.6445 8.57521C30.7718 8.58682 31.2231 8.61778 31.6474 8.63713ZM18.0125 9.05125C17.812 9.14801 17.3067 9.36475 16.894 9.53504C16.4813 9.70533 15.8487 9.984 15.4939 10.1543C14.7032 10.5297 14.3753 10.611 13.951 10.5413C13.5615 10.4717 13.2105 10.2743 12.8325 9.90272L12.5162 9.5931L12.6319 9.56213C12.6975 9.54278 13.9626 9.38797 15.4476 9.21768C16.9326 9.04738 18.1745 8.90031 18.2054 8.89257C18.3983 8.84613 18.3327 8.89644 18.0125 9.05125Z" fill="#18222A"/>
<path d="M2.55333 6.28919C2.24862 6.33951 1.9902 6.38982 1.97477 6.40143C1.9632 6.41691 2.05191 7.06712 2.17148 7.84892C3.0509 13.5731 3.28618 15.0786 3.30932 15.098C3.32475 15.1096 3.60246 15.0748 3.92646 15.0244C4.47802 14.9354 4.51274 14.9238 4.51274 14.8425C4.51274 14.7961 4.42402 14.1923 4.31988 13.5034C3.57161 8.67329 3.20133 6.2621 3.20133 6.23114C3.20133 6.18469 3.22061 6.18082 2.55333 6.28919Z" fill="#18222A"/>
<path d="M46.1385 7.1291C45.9341 8.06571 45.1974 11.429 44.7809 13.3448C44.5687 14.3046 44.3951 15.1096 44.3951 15.1251C44.3951 15.1561 45.4288 15.4038 45.5561 15.4038C45.6217 15.4038 45.5831 15.5625 46.3623 11.9979C46.5975 10.922 46.9447 9.33516 47.1337 8.46822C47.3265 7.60127 47.4808 6.86979 47.4808 6.83883C47.4808 6.80399 47.3034 6.74981 46.91 6.66466C46.5937 6.595 46.3198 6.54081 46.3005 6.54081C46.2813 6.54081 46.208 6.80786 46.1385 7.1291Z" fill="#18222A"/>
<path d="M0.566951 7.44644C0.277669 7.49676 0.0308147 7.5432 0.0192434 7.55481C0.0115292 7.56255 0.0693856 8.00377 0.154242 8.53787C0.235241 9.0681 0.478237 10.6433 0.694235 12.0366C0.910232 13.4299 1.09152 14.5794 1.10309 14.5871C1.1108 14.5949 1.38851 14.5639 1.72022 14.5136L2.32193 14.4207L2.29879 14.2233C2.28721 14.1111 2.06736 12.683 1.81665 11.0458C1.56208 9.40868 1.33065 7.91088 1.30366 7.72124C1.25737 7.42322 1.23808 7.37291 1.17637 7.36517C1.13394 7.3613 0.86009 7.4 0.566951 7.44644Z" fill="#18222A"/>
<path d="M48.1172 7.90312C48.1056 7.95343 47.9397 8.70427 47.7507 9.57895C47.5579 10.4498 47.2262 11.9708 47.014 12.9577C46.798 13.9408 46.6322 14.7574 46.6438 14.7729C46.6669 14.7922 47.7585 15.0515 47.8395 15.0554C47.8549 15.0554 47.8665 15.0283 47.8665 14.9974C47.8665 14.9664 48.04 14.142 48.256 13.1706C48.4682 12.1953 48.8076 10.651 49.0081 9.73764C49.2087 8.82425 49.3669 8.07341 49.363 8.06954C49.3437 8.05406 48.2367 7.81797 48.1866 7.81797C48.1596 7.81797 48.1287 7.85667 48.1172 7.90312Z" fill="#18222A"/>
</g>
<path d="M68.609 17.7966C69.0384 17.7966 69.3757 17.9193 69.621 18.1646C69.8817 18.3946 70.012 18.7166 70.012 19.1306V23.6156C70.012 24.2289 69.9584 24.7043 69.851 25.0416C69.759 25.3789 69.5904 25.6473 69.345 25.8466C69.0997 26.0459 68.7317 26.2146 68.241 26.3526C67.643 26.5366 66.953 26.6823 66.171 26.7896C65.4044 26.8969 64.676 26.9506 63.986 26.9506C62.2687 26.9506 60.7814 26.6209 59.524 25.9616C58.2667 25.2869 57.3007 24.3286 56.626 23.0866C55.9514 21.8293 55.614 20.3419 55.614 18.6246C55.614 16.9379 55.9437 15.4736 56.603 14.2316C57.2777 12.9743 58.236 12.0083 59.478 11.3336C60.72 10.6589 62.169 10.3216 63.825 10.3216C65.9564 10.3216 67.7197 10.8736 69.115 11.9776C69.345 12.1616 69.506 12.3456 69.598 12.5296C69.69 12.7136 69.736 12.9436 69.736 13.2196C69.736 13.6183 69.621 13.9633 69.391 14.2546C69.1764 14.5306 68.9157 14.6686 68.609 14.6686C68.4097 14.6686 68.2257 14.6379 68.057 14.5766C67.9037 14.5153 67.712 14.4156 67.482 14.2776C66.838 13.8789 66.2477 13.5953 65.711 13.4266C65.1744 13.2579 64.584 13.1736 63.94 13.1736C60.812 13.1736 59.248 14.9906 59.248 18.6246C59.248 20.4953 59.6544 21.8906 60.467 22.8106C61.2797 23.7306 62.5064 24.1906 64.147 24.1906C65.0364 24.1906 65.918 24.0756 66.792 23.8456V20.2806H64.676C64.2314 20.2806 63.8864 20.1733 63.641 19.9586C63.3957 19.7439 63.273 19.4373 63.273 19.0386C63.273 18.6399 63.3957 18.3333 63.641 18.1186C63.8864 17.9039 64.2314 17.7966 64.676 17.7966H68.609ZM79.0575 15.2206C79.5175 15.1899 79.8778 15.2973 80.1385 15.5426C80.4145 15.7726 80.5525 16.1253 80.5525 16.6006C80.5525 17.1066 80.4298 17.4823 80.1845 17.7276C79.9392 17.9729 79.5022 18.1263 78.8735 18.1876L78.1835 18.2566C77.3402 18.3486 76.7268 18.6246 76.3435 19.0846C75.9755 19.5446 75.7915 20.1349 75.7915 20.8556V25.2486C75.7915 25.7853 75.6228 26.1916 75.2855 26.4676C74.9635 26.7436 74.5572 26.8816 74.0665 26.8816C73.5605 26.8816 73.1388 26.7436 72.8015 26.4676C72.4795 26.1916 72.3185 25.7853 72.3185 25.2486V16.8076C72.3185 16.3016 72.4872 15.9106 72.8245 15.6346C73.1618 15.3586 73.5682 15.2206 74.0435 15.2206C74.5035 15.2206 74.8868 15.3586 75.1935 15.6346C75.5002 15.8953 75.6535 16.2633 75.6535 16.7386V17.3596C75.9295 16.7003 76.3435 16.1943 76.8955 15.8416C77.4628 15.4889 78.0762 15.2896 78.7355 15.2436L79.0575 15.2206ZM89.9273 23.3856C90.234 23.3856 90.4793 23.5083 90.6633 23.7536C90.8627 23.9989 90.9623 24.3133 90.9623 24.6966C90.9623 24.9573 90.8857 25.2026 90.7323 25.4326C90.579 25.6473 90.3643 25.8313 90.0883 25.9846C89.567 26.2606 88.9613 26.4906 88.2713 26.6746C87.5813 26.8433 86.945 26.9276 86.3623 26.9276C85.1357 26.9276 84.0623 26.6899 83.1423 26.2146C82.2377 25.7393 81.54 25.0646 81.0493 24.1906C80.5587 23.3013 80.3133 22.2586 80.3133 21.0626C80.3133 19.9126 80.551 18.8929 81.0263 18.0036C81.5017 17.1143 82.161 16.4243 83.0043 15.9336C83.8477 15.4276 84.806 15.1746 85.8793 15.1746C86.9067 15.1746 87.8037 15.4046 88.5703 15.8646C89.3523 16.3093 89.958 16.9533 90.3873 17.7966C90.8167 18.6246 91.0313 19.5983 91.0313 20.7176C91.0313 21.0549 90.947 21.3156 90.7783 21.4996C90.625 21.6683 90.4027 21.7526 90.1113 21.7526H83.6713C83.7787 22.6573 84.0547 23.3166 84.4993 23.7306C84.944 24.1293 85.5803 24.3286 86.4083 24.3286C86.853 24.3286 87.2517 24.2749 87.6043 24.1676C87.957 24.0603 88.348 23.9146 88.7773 23.7306C88.992 23.6386 89.199 23.5619 89.3983 23.5006C89.5977 23.4239 89.774 23.3856 89.9273 23.3856ZM85.9713 17.5666C85.312 17.5666 84.783 17.7813 84.3843 18.2106C83.9857 18.6246 83.748 19.2303 83.6713 20.0276H88.1103C88.0643 19.2149 87.8573 18.6016 87.4893 18.1876C87.1367 17.7736 86.6307 17.5666 85.9713 17.5666ZM97.752 15.1746C99.408 15.1746 100.635 15.5809 101.432 16.3936C102.229 17.1909 102.628 18.4176 102.628 20.0736V25.2716C102.628 25.7776 102.482 26.1763 102.191 26.4676C101.9 26.7436 101.493 26.8816 100.972 26.8816C100.481 26.8816 100.083 26.7359 99.776 26.4446C99.4847 26.1379 99.339 25.7469 99.339 25.2716V25.1106C99.109 25.6779 98.7257 26.1226 98.189 26.4446C97.6523 26.7666 97.0237 26.9276 96.303 26.9276C95.5363 26.9276 94.8387 26.7743 94.21 26.4676C93.5967 26.1609 93.106 25.7316 92.738 25.1796C92.3853 24.6276 92.209 24.0143 92.209 23.3396C92.209 22.5116 92.416 21.8599 92.83 21.3846C93.2593 20.9093 93.9417 20.5643 94.877 20.3496C95.8123 20.1349 97.0927 20.0276 98.718 20.0276H99.316V19.6136C99.316 18.9696 99.1703 18.5019 98.879 18.2106C98.603 17.9193 98.1353 17.7736 97.476 17.7736C96.8167 17.7736 95.866 18.0036 94.624 18.4636C94.2713 18.6323 93.9723 18.7166 93.727 18.7166C93.3897 18.7166 93.1213 18.6016 92.922 18.3716C92.7227 18.1263 92.623 17.8119 92.623 17.4286C92.623 17.1219 92.692 16.8689 92.83 16.6696C92.968 16.4703 93.1903 16.2863 93.497 16.1176C94.0337 15.8263 94.6853 15.5963 95.452 15.4276C96.234 15.2589 97.0007 15.1746 97.752 15.1746ZM97.062 24.5356C97.7367 24.5356 98.281 24.3133 98.695 23.8686C99.109 23.4086 99.316 22.8183 99.316 22.0976V21.7066H98.925C97.683 21.7066 96.809 21.8063 96.303 22.0056C95.8123 22.2049 95.567 22.5653 95.567 23.0866C95.567 23.5159 95.705 23.8686 95.981 24.1446C96.2723 24.4053 96.6327 24.5356 97.062 24.5356ZM111.044 24.3516C111.504 24.3823 111.841 24.4973 112.056 24.6966C112.27 24.8959 112.378 25.1873 112.378 25.5706C112.378 26.0153 112.201 26.3526 111.849 26.5826C111.496 26.8126 110.99 26.9046 110.331 26.8586L109.687 26.8126C107.003 26.5979 105.662 25.1949 105.662 22.6036V18.0496H104.742C104.236 18.0496 103.852 17.9423 103.592 17.7276C103.331 17.4976 103.201 17.1756 103.201 16.7616C103.201 16.3323 103.331 16.0103 103.592 15.7956C103.852 15.5656 104.236 15.4506 104.742 15.4506H105.662V13.6566C105.662 13.1506 105.815 12.7519 106.122 12.4606C106.444 12.1693 106.873 12.0236 107.41 12.0236C107.946 12.0236 108.368 12.1693 108.675 12.4606C108.981 12.7519 109.135 13.1506 109.135 13.6566V15.4506H110.745C111.787 15.4506 112.309 15.8876 112.309 16.7616C112.309 17.1756 112.178 17.4976 111.918 17.7276C111.657 17.9423 111.266 18.0496 110.745 18.0496H109.135V22.8566C109.135 23.3166 109.242 23.6693 109.457 23.9146C109.671 24.1446 109.986 24.2749 110.4 24.3056L111.044 24.3516ZM127.873 10.4136C128.379 10.4136 128.786 10.5823 129.092 10.9196C129.414 11.2416 129.575 11.6633 129.575 12.1846V25.2486C129.575 25.7546 129.43 26.1533 129.138 26.4446C128.847 26.7359 128.464 26.8816 127.988 26.8816C127.528 26.8816 127.153 26.7359 126.861 26.4446C126.57 26.1533 126.424 25.7546 126.424 25.2486V17.1296L123.158 23.2706C122.944 23.6693 122.706 23.9606 122.445 24.1446C122.2 24.3286 121.901 24.4206 121.548 24.4206C121.211 24.4206 120.912 24.3286 120.651 24.1446C120.391 23.9606 120.153 23.6693 119.938 23.2706L116.672 17.2446V25.2486C116.672 25.7393 116.527 26.1379 116.235 26.4446C115.944 26.7359 115.561 26.8816 115.085 26.8816C114.625 26.8816 114.25 26.7359 113.958 26.4446C113.667 26.1533 113.521 25.7546 113.521 25.2486V12.1846C113.521 11.6633 113.675 11.2416 113.981 10.9196C114.303 10.5823 114.717 10.4136 115.223 10.4136C115.959 10.4136 116.519 10.8046 116.902 11.5866L121.571 20.4416L126.217 11.5866C126.631 10.8046 127.183 10.4136 127.873 10.4136ZM137.529 26.9276C136.333 26.9276 135.282 26.6899 134.378 26.2146C133.473 25.7239 132.775 25.0416 132.285 24.1676C131.794 23.2783 131.549 22.2356 131.549 21.0396C131.549 19.8436 131.794 18.8086 132.285 17.9346C132.775 17.0453 133.473 16.3629 134.378 15.8876C135.282 15.4123 136.333 15.1746 137.529 15.1746C138.725 15.1746 139.775 15.4123 140.68 15.8876C141.584 16.3629 142.282 17.0453 142.773 17.9346C143.263 18.8086 143.509 19.8436 143.509 21.0396C143.509 22.2356 143.263 23.2783 142.773 24.1676C142.282 25.0416 141.584 25.7239 140.68 26.2146C139.775 26.6899 138.725 26.9276 137.529 26.9276ZM137.529 24.2826C139.215 24.2826 140.059 23.2016 140.059 21.0396C140.059 19.9509 139.836 19.1383 139.392 18.6016C138.962 18.0649 138.341 17.7966 137.529 17.7966C135.842 17.7966 134.999 18.8776 134.999 21.0396C134.999 23.2016 135.842 24.2826 137.529 24.2826ZM152.642 16.2096C152.796 15.8876 152.995 15.6499 153.24 15.4966C153.501 15.3279 153.777 15.2436 154.068 15.2436C154.498 15.2436 154.881 15.3893 155.218 15.6806C155.556 15.9566 155.724 16.2939 155.724 16.6926C155.724 16.9226 155.671 17.1449 155.563 17.3596L151.423 25.8466C151.27 26.1839 151.04 26.4446 150.733 26.6286C150.427 26.7973 150.097 26.8816 149.744 26.8816C149.392 26.8816 149.062 26.7973 148.755 26.6286C148.449 26.4446 148.211 26.1839 148.042 25.8466L143.902 17.3596C143.81 17.1449 143.764 16.9379 143.764 16.7386C143.764 16.3246 143.941 15.9719 144.293 15.6806C144.661 15.3893 145.068 15.2436 145.512 15.2436C145.834 15.2436 146.126 15.3279 146.386 15.4966C146.647 15.6499 146.854 15.8876 147.007 16.2096L149.836 22.3966L152.642 16.2096ZM165.601 23.3856C165.908 23.3856 166.153 23.5083 166.337 23.7536C166.536 23.9989 166.636 24.3133 166.636 24.6966C166.636 24.9573 166.559 25.2026 166.406 25.4326C166.253 25.6473 166.038 25.8313 165.762 25.9846C165.241 26.2606 164.635 26.4906 163.945 26.6746C163.255 26.8433 162.619 26.9276 162.036 26.9276C160.809 26.9276 159.736 26.6899 158.816 26.2146C157.911 25.7393 157.214 25.0646 156.723 24.1906C156.232 23.3013 155.987 22.2586 155.987 21.0626C155.987 19.9126 156.225 18.8929 156.7 18.0036C157.175 17.1143 157.835 16.4243 158.678 15.9336C159.521 15.4276 160.48 15.1746 161.553 15.1746C162.58 15.1746 163.477 15.4046 164.244 15.8646C165.026 16.3093 165.632 16.9533 166.061 17.7966C166.49 18.6246 166.705 19.5983 166.705 20.7176C166.705 21.0549 166.621 21.3156 166.452 21.4996C166.299 21.6683 166.076 21.7526 165.785 21.7526H159.345C159.452 22.6573 159.728 23.3166 160.173 23.7306C160.618 24.1293 161.254 24.3286 162.082 24.3286C162.527 24.3286 162.925 24.2749 163.278 24.1676C163.631 24.0603 164.022 23.9146 164.451 23.7306C164.666 23.6386 164.873 23.5619 165.072 23.5006C165.271 23.4239 165.448 23.3856 165.601 23.3856ZM161.645 17.5666C160.986 17.5666 160.457 17.7813 160.058 18.2106C159.659 18.6246 159.422 19.2303 159.345 20.0276H163.784C163.738 19.2149 163.531 18.6016 163.163 18.1876C162.81 17.7736 162.304 17.5666 161.645 17.5666Z" fill="#18222A"/>
<defs>
<clipPath id="clip0_116:3469">
<rect width="49.3708" height="37" fill="white"/>
</clipPath>
</defs>
</svg>
