<svg width="52" height="39" viewBox="0 0 52 39" fill="none" xmlns="http://www.w3.org/2000/svg">
<g clip-path="url(#clip0_1:2986)">
<path d="M25.5734 0.063839C24.7284 0.19846 23.9728 0.581936 23.4163 1.15714C22.7541 1.83842 22.4697 2.57681 22.5184 3.47022C22.555 4.14334 22.7581 4.64103 23.4772 5.79553C24.0256 6.6767 24.1475 6.90924 24.2694 7.27639C24.4319 7.75777 24.4441 7.74145 23.9809 7.77001C23.7616 7.78225 21.0438 8.05965 17.94 8.38601L12.2972 8.97754L11.9884 8.65526C11.5091 8.15756 11.1028 8.0311 10.4731 8.18612C9.90845 8.32074 9.18532 8.76949 8.88876 9.1652C8.81563 9.26311 8.73845 9.34878 8.71407 9.34878C8.69376 9.35285 8.11688 9.41405 7.43438 9.4834C6.75188 9.55683 6.19126 9.60578 6.1872 9.59355C6.17907 9.58131 6.02876 8.63078 5.85407 7.47629C5.67532 6.32587 5.52095 5.37534 5.51688 5.37127C5.50063 5.35495 4.25345 5.55484 4.23313 5.57116C4.22501 5.57932 4.44032 7.02346 4.71251 8.78172C4.9847 10.54 5.35845 12.9673 5.54532 14.1748C5.7322 15.3824 5.89063 16.3818 5.90282 16.39C5.92313 16.4104 7.14595 16.2227 7.17438 16.1901C7.18657 16.1779 7.01188 14.9826 6.78845 13.5262C6.56095 12.0739 6.3822 10.8827 6.38626 10.8786C6.39438 10.8745 6.91438 10.8092 7.54813 10.7358L8.69376 10.6053L8.82782 10.7236C8.90095 10.7888 9.3722 11.0458 9.87188 11.2947C11.9478 12.3309 12.8416 12.9591 13.9141 14.1381C14.4097 14.6848 14.6656 14.8847 15.1288 15.1009C16.0469 15.5333 17.0138 15.4599 17.7613 14.9051C18.0253 14.7092 18.2 14.5012 18.4966 14.0198C18.8581 13.4364 19.1913 13.1672 19.7072 13.057C20.1378 12.9632 20.7553 13.0897 21.2184 13.3589C21.4988 13.5262 21.8359 13.8566 21.9984 14.1218C22.165 14.3992 22.3031 14.8928 22.3031 15.2233C22.3031 15.5088 22.3803 15.9372 22.5875 16.7775C22.8556 17.8749 22.8841 18.3196 22.7175 18.7887C22.5916 19.1559 22.1731 19.523 20.8366 20.4572C19.1547 21.6321 18.4844 22.4195 17.9928 23.7984C17.7734 24.4184 17.6719 24.9365 17.6434 25.626C17.5988 26.7234 17.81 27.6168 18.2691 28.298C18.6997 28.9385 18.8134 29.3342 19.0531 30.9905C19.1425 31.6188 19.305 32.5448 19.4066 33.0507C19.5691 33.8462 19.5975 34.0379 19.5975 34.4785C19.6016 35.119 19.5488 35.2495 19.0978 35.7186C18.7363 36.094 18.4438 36.5101 18.3138 36.8405C18.1838 37.171 18.1838 37.7339 18.3138 37.9746C18.6469 38.6029 19.5284 38.9251 20.9219 38.9251C21.5434 38.9251 21.7628 38.8599 22.0147 38.6069C22.3316 38.2847 22.4981 37.6442 22.4494 36.9099C22.3478 35.3352 22.3641 35.119 22.6363 34.401C22.9734 33.5035 23.0953 32.7651 23.0628 31.7738C23.0303 30.6193 22.9328 30.3827 21.9172 28.9916C21.7222 28.7223 21.4744 28.3266 21.3728 28.1145L21.1859 27.7269V27.2782C21.1859 26.8621 21.1941 26.8172 21.2956 26.6377C21.4297 26.4174 21.6816 26.193 22.2422 25.8095C22.8922 25.3649 23.0506 25.2384 23.27 24.9936C23.5138 24.7162 23.8103 24.137 24.2084 23.1497C24.5619 22.2767 24.7 22.0034 24.8706 21.8198C25.1956 21.4771 25.6141 21.6199 25.9797 22.1951C26.0325 22.2808 26.2153 22.6071 26.39 22.9172C26.9791 23.9819 27.3731 24.5 27.9094 24.9121C28.1897 25.1242 28.8519 25.5199 29.5953 25.9156C30.1925 26.2297 30.5906 26.552 30.5906 26.7111C30.5906 26.8702 30.4322 27.4128 30.3266 27.6249C30.1763 27.9268 29.9447 28.1593 29.4288 28.5469C28.7666 29.0405 28.5106 29.3791 28.2628 30.093C28.145 30.4316 28.1328 30.4969 28.1409 30.9497C28.145 31.2394 28.2141 31.9614 28.3116 32.7243C28.5675 34.7681 28.6041 35.5677 28.4944 37.0486C28.405 38.2439 29.1931 39.0761 30.3266 38.9945C30.7978 38.9578 31.8013 38.7783 32.0775 38.6844C32.4919 38.5376 32.7519 38.1867 32.8088 37.6931C32.8453 37.3668 32.76 37.2852 31.9597 36.8895C31.2 36.5142 30.9197 36.2979 30.7328 35.9226C30.6272 35.7146 30.611 35.6289 30.5988 35.274C30.5744 34.6457 30.6881 34.2704 31.2691 33.0507C31.9109 31.7126 32.4756 30.2766 33.4791 27.4617C33.7756 26.6254 33.8366 26.3684 33.8406 25.9523C33.8447 25.0018 33.4141 23.986 32.5488 22.9049C31.9313 22.1339 31.2 21.5138 30.2494 20.9549C29.1119 20.2818 28.8113 20.0371 28.6285 19.6373C28.5553 19.4782 28.5391 19.3762 28.5431 19.0376C28.5472 18.5603 28.6041 18.2706 28.9291 16.9897C29.5222 14.6562 29.9366 13.6975 30.5216 13.2936C30.6475 13.208 30.7328 13.1835 30.8872 13.1835C31.1959 13.1835 31.4072 13.31 31.8053 13.7302C33.0647 15.0601 33.345 15.313 33.8813 15.6067C34.2713 15.8189 34.5922 15.8882 35.0594 15.8637C35.5306 15.8393 35.7541 15.7617 36.3269 15.415C36.8834 15.0764 37.4969 14.6154 38.5735 13.7179C39.6663 12.8082 40.166 12.4288 40.8281 12.0168C41.3725 11.6741 41.8925 11.1968 42.1688 10.7888C42.246 10.6705 42.3313 10.5726 42.3516 10.5726C42.4044 10.5726 45.3375 11.3763 45.3578 11.3967C45.366 11.4008 45.3375 11.5639 45.2928 11.7557C45.0206 12.9877 44.3219 16.2105 44.3219 16.2513C44.3219 16.288 44.5372 16.3492 44.9556 16.4389C45.305 16.5165 45.5935 16.5695 45.5975 16.5613C45.6056 16.5572 45.7681 15.8229 45.9591 14.9377C46.15 14.0524 46.5116 12.4002 46.7594 11.2661C47.7181 6.89292 47.9375 5.86897 47.9294 5.86081C47.8969 5.83225 46.6741 5.5834 46.6578 5.6038C46.6375 5.62011 45.7519 9.63434 45.6828 10.0056C45.6341 10.2748 45.6706 10.2748 44.6428 9.96886C44.1188 9.81384 43.5094 9.63434 43.286 9.57315C43.0625 9.50788 42.8756 9.45484 42.8716 9.45076C42.8635 9.44668 42.8878 9.30798 42.9244 9.14072C43.0585 8.51248 42.9163 7.93319 42.5344 7.57827C42.0672 7.13769 41.4091 6.9949 40.8241 7.20296C40.426 7.34166 40.1253 7.55787 39.65 8.04333L39.2234 8.47576L39 8.42273C38.3663 8.27587 37.1313 8.03926 36.6844 7.98214C35.3803 7.81896 33.471 7.72921 30.2859 7.68434L28.3806 7.65578L28.2547 7.45589C28.1491 7.28047 28.1328 7.2152 28.1328 6.96635C28.1369 6.60327 28.2425 6.38298 28.6325 5.93423C29.3028 5.16729 29.5181 4.62472 29.5588 3.59668C29.5791 3.14386 29.5709 2.9766 29.5019 2.6584C29.2459 1.41823 28.5309 0.549297 27.4869 0.214779C26.8491 0.0108032 26.2397 -0.0381508 25.5734 0.063839ZM33.3328 9.10401C34.4216 9.16112 35.6119 9.25495 36.5016 9.35285C37.2328 9.43444 38.2606 9.58539 38.3216 9.6221C38.3703 9.65066 37.8706 10.2299 37.5253 10.5481C36.9891 11.0336 36.4488 11.4171 35.9328 11.67C35.2056 12.029 34.8238 12.0902 34.4256 11.9025C34.1616 11.7802 34.0478 11.6251 33.8041 11.0744C33.4669 10.3034 32.9428 9.6425 32.3578 9.24679C32.0084 9.01426 32.0084 9.01426 32.2766 9.03873C32.4106 9.05097 32.886 9.08361 33.3328 9.10401ZM18.9719 9.54051C18.7606 9.6425 18.2284 9.87095 17.7938 10.0504C17.3591 10.2299 16.6928 10.5237 16.3191 10.7032C15.4863 11.0989 15.1409 11.1845 14.6941 11.1111C14.2838 11.0377 13.9141 10.8296 13.5159 10.438L13.1828 10.1116L13.3047 10.079C13.3738 10.0586 14.7063 9.89543 16.2703 9.71593C17.8344 9.53643 19.1425 9.38141 19.175 9.37325C19.3781 9.3243 19.3091 9.37733 18.9719 9.54051Z" fill="#18222A"/>
<path d="M2.68936 6.62917C2.36843 6.68221 2.09624 6.73524 2.07999 6.74748C2.0678 6.7638 2.16124 7.44915 2.28718 8.27321C3.21343 14.3068 3.46124 15.8937 3.48561 15.9141C3.50186 15.9263 3.79436 15.8896 4.13561 15.8366C4.71655 15.7428 4.75311 15.7305 4.75311 15.6449C4.75311 15.5959 4.65968 14.9595 4.54999 14.2334C3.76186 9.14214 3.37186 6.60062 3.37186 6.56798C3.37186 6.51903 3.39218 6.51495 2.68936 6.62917Z" fill="#18222A"/>
<path d="M48.5956 7.51443C48.3803 8.50167 47.6044 12.0468 47.1656 14.0661C46.9422 15.0778 46.7594 15.9264 46.7594 15.9427C46.7594 15.9753 47.8481 16.2364 47.9822 16.2364C48.0513 16.2364 48.0106 16.4037 48.8313 12.6464C49.0791 11.5123 49.4447 9.83975 49.6438 8.92594C49.8469 8.01213 50.0094 7.24111 50.0094 7.20847C50.0094 7.17175 49.8225 7.11464 49.4081 7.02489C49.075 6.95146 48.7866 6.89435 48.7663 6.89435C48.746 6.89435 48.6688 7.17583 48.5956 7.51443Z" fill="#18222A"/>
<path d="M0.597193 7.84894C0.292505 7.90197 0.0325052 7.95093 0.0203177 7.96317C0.0121927 7.97133 0.0731302 8.43639 0.162505 8.99936C0.247818 9.55825 0.503755 11.2186 0.731255 12.6872C0.958755 14.1558 1.14969 15.3675 1.16188 15.3756C1.17001 15.3838 1.46251 15.3511 1.81188 15.2981L2.44563 15.2002L2.42126 14.9921C2.40907 14.8738 2.17751 13.3685 1.91344 11.6429C1.64532 9.91725 1.40157 8.33848 1.37313 8.13859C1.32438 7.82446 1.30407 7.77143 1.23907 7.76327C1.19438 7.75919 0.905943 7.79999 0.597193 7.84894Z" fill="#18222A"/>
<path d="M50.6797 8.33032C50.6675 8.38335 50.4929 9.17478 50.2938 10.0967C50.0907 11.0146 49.7413 12.6179 49.5179 13.6581C49.2904 14.6943 49.1157 15.5551 49.1279 15.5714C49.1522 15.5918 50.3019 15.8652 50.3872 15.8692C50.4035 15.8692 50.4157 15.8407 50.4157 15.808C50.4157 15.7754 50.5985 14.9065 50.826 13.8825C51.0494 12.8545 51.4069 11.2268 51.6182 10.264C51.8294 9.30124 51.996 8.50982 51.9919 8.50574C51.9716 8.48942 50.8057 8.24057 50.7529 8.24057C50.7244 8.24057 50.6919 8.28137 50.6797 8.33032Z" fill="#18222A"/>
</g>
<defs>
<clipPath id="clip0_1:2986">
<rect width="52" height="39" fill="white"/>
</clipPath>
</defs>
</svg>
