<svg viewBox="0 0 327 47" fill="none" xmlns="http://www.w3.org/2000/svg">
<path fill-rule="evenodd" clip-rule="evenodd" d="M171.392 41.792V4.736C171.389 4.28306 171.432 3.831 171.522 3.387C171.636 2.84167 171.825 2.362 172.09 1.948C172.238 1.7168 172.411 1.50339 172.608 1.312C173.341 0.598 174.354 0.207 175.645 0.139C175.785 0.131647 175.924 0.127979 176.064 0.128C176.466 0.126001 176.867 0.155088 177.264 0.215C177.995 0.329 178.609 0.556 179.104 0.896C179.428 1.12177 179.724 1.38417 179.988 1.678C180.243 1.95733 180.49 2.27867 180.731 2.642C180.892 2.88603 181.043 3.13622 181.184 3.392L194.88 28.416L208.576 3.392C209.216 2.24 209.909 1.408 210.656 0.896C211.038 0.639031 211.462 0.448987 211.908 0.334C212.258 0.239333 212.639 0.177333 213.051 0.148C213.244 0.134426 213.438 0.127755 213.632 0.128C214.763 0.128 215.693 0.367667 216.422 0.847C216.627 0.982204 216.818 1.13801 216.992 1.312C217.781 2.10133 218.176 3.24267 218.176 4.736V41.792C218.176 44.2173 217.246 45.6853 215.385 46.196C214.834 46.339 214.266 46.4076 213.696 46.4C213.084 46.4092 212.474 46.3311 211.884 46.168C210.063 45.6327 209.152 44.174 209.152 41.792V18.304L198.656 37.184C198.254 37.8207 197.832 38.3323 197.391 38.719C197.274 38.8218 197.151 38.9182 197.024 39.008C196.715 39.2213 196.371 39.3775 196.007 39.469C195.632 39.567 195.214 39.616 194.752 39.616C193.96 39.616 193.29 39.4717 192.741 39.183C192.64 39.1302 192.542 39.0718 192.448 39.008C192.136 38.7928 191.852 38.5387 191.604 38.252C191.336 37.9467 191.084 37.5907 190.848 37.184L180.352 18.496V41.792C180.352 44.2173 179.422 45.6853 177.561 46.196C177.01 46.339 176.442 46.4076 175.872 46.4C175.43 46.4033 174.988 46.3594 174.555 46.269C174.001 46.149 173.517 45.9463 173.102 45.661C172.9 45.522 172.713 45.3621 172.544 45.184C171.837 44.4373 171.456 43.4193 171.4 42.13C171.395 42.0174 171.392 41.9047 171.392 41.792V41.792ZM31.872 36.928V28.096H26.112C23.4667 28.096 22.144 26.9013 22.144 24.512C22.1354 24.0091 22.209 23.5082 22.362 23.029C22.828 21.6543 24.0403 20.9543 25.999 20.929C26.0367 20.9284 26.0743 20.9281 26.112 20.928H36.16C36.6859 20.9201 37.2102 20.9875 37.717 21.128C38.8663 21.4667 39.5937 22.234 39.899 23.43C40.0147 23.9099 40.0701 24.4024 40.064 24.896V39.744C40.0666 40.1692 40.0298 40.5936 39.954 41.012C39.856 41.534 39.693 42.0067 39.465 42.43C39.4414 42.4738 39.4171 42.5171 39.392 42.56C39.0564 43.1294 38.5688 43.5941 37.984 43.902C37.7479 44.0293 37.5017 44.137 37.248 44.224C36.1161 44.6232 34.965 44.966 33.799 45.251C32.8012 45.4961 31.7957 45.7086 30.784 45.888C28.3947 46.3147 26.0267 46.528 23.68 46.528C21.7359 46.5379 19.7946 46.379 17.878 46.053C15.61 45.655 13.5447 45.007 11.682 44.109C11.3789 43.9629 11.0794 43.8091 10.784 43.648C7.264 41.728 4.58667 39.04 2.752 35.584C0.917333 32.128 0 28.0747 0 23.424C0 18.6453 0.949333 14.5067 2.848 11.008C4.74667 7.50933 7.488 4.8 11.072 2.88C14.656 0.96 18.9653 0 24 0C26.304 0 28.608 0.256 30.912 0.768C33.216 1.28 35.4347 2.13333 37.568 3.328C38.72 3.968 39.4133 4.82133 39.648 5.888C39.878 6.93267 39.7703 7.94633 39.325 8.929C39.3155 8.95006 39.3058 8.97106 39.296 8.992C38.8267 9.99467 38.112 10.72 37.152 11.168C36.278 11.576 35.2533 11.5327 34.078 11.038C33.96 10.9884 33.8433 10.9357 33.728 10.88C31.4357 9.69604 28.9342 8.97146 26.364 8.747C25.5995 8.67489 24.8319 8.63918 24.064 8.64C20.786 8.64 18.0967 9.29433 15.996 10.603C15.1779 11.1109 14.4359 11.732 13.792 12.448C12.6282 13.7692 11.7617 15.325 11.251 17.01C10.8557 18.2527 10.5933 19.6257 10.464 21.129C10.3991 21.8923 10.3671 22.658 10.368 23.424C10.3593 24.8192 10.4728 26.2125 10.707 27.588C10.9717 29.084 11.392 30.423 11.968 31.605C12.4542 32.6161 13.0907 33.5476 13.856 34.368C15.9253 36.5693 18.8807 37.7917 22.722 38.035C23.2114 38.0655 23.7016 38.0805 24.192 38.08C26.624 38.08 29.184 37.696 31.872 36.928ZM125.824 27.136H128.128V26.048C128.131 25.5861 128.1 25.1246 128.038 24.667C127.879 23.555 127.511 22.7097 126.934 22.131C126.906 22.1028 126.877 22.0751 126.848 22.048C126.511 21.7458 126.121 21.5091 125.697 21.35C124.988 21.07 124.096 20.911 123.021 20.873C122.846 20.8669 122.671 20.8639 122.496 20.864C121.852 20.8658 121.209 20.9049 120.57 20.981C119.949 21.0546 119.332 21.1543 118.72 21.28C117.355 21.5573 115.883 22.016 114.304 22.656C113.109 23.168 112.107 23.2 111.296 22.752C110.91 22.5443 110.571 22.2603 110.299 21.9173C110.027 21.5743 109.827 21.1796 109.712 20.757C109.707 20.7394 109.701 20.7217 109.696 20.704C109.598 20.3558 109.548 19.9957 109.548 19.634C109.548 19.0667 109.672 18.4953 109.92 17.92C110.198 17.2867 110.662 16.7527 111.25 16.389C111.586 16.1763 111.945 16.0029 112.32 15.872C113.336 15.4806 114.37 15.1355 115.417 14.838C116.263 14.5978 117.119 14.3982 117.984 14.24C119.755 13.92 121.387 13.76 122.88 13.76C125.967 13.76 128.556 14.2027 130.647 15.088C131.79 15.5597 132.843 16.2255 133.76 17.056C135.011 18.2311 135.946 19.7033 136.476 21.336C136.856 22.4413 137.111 23.6723 137.242 25.029C137.312 25.7719 137.346 26.5178 137.344 27.264V41.472C137.352 42.108 137.283 42.7427 137.138 43.362C136.729 45.0067 135.712 45.9837 134.089 46.293C133.685 46.367 133.275 46.4028 132.864 46.4C132.236 46.4102 131.611 46.3217 131.011 46.138C129.715 45.7173 128.887 44.7883 128.527 43.351C128.382 42.7354 128.312 42.1044 128.32 41.472V41.088C127.68 42.752 126.603 44.0747 125.088 45.056C123.573 46.0373 121.728 46.528 119.552 46.528C118.448 46.534 117.346 46.423 116.265 46.197C115.252 45.9841 114.271 45.6437 113.344 45.184C112.223 44.6335 111.199 43.9032 110.314 43.022C109.86 42.5656 109.45 42.0681 109.088 41.536C108.043 40 107.52 38.272 107.52 36.352C107.52 34.18 108.071 32.4213 109.174 31.076C109.219 31.0206 109.265 30.9659 109.312 30.912C109.848 30.3139 110.479 29.8093 111.181 29.419C111.778 29.077 112.457 28.7777 113.216 28.521C113.846 28.3109 114.487 28.1369 115.136 28C117.705 27.4493 121.073 27.162 125.24 27.138C125.435 27.1368 125.629 27.1361 125.824 27.136ZM100.288 32.192H81.472C81.5687 32.9302 81.7368 33.6573 81.974 34.363C82.4527 35.7523 83.192 36.8313 84.192 37.6C84.9251 38.1515 85.7532 38.564 86.635 38.817C87.6983 39.1363 88.9213 39.296 90.304 39.296C91.184 39.296 92.1667 39.2093 93.252 39.036C93.4323 39.0071 93.6123 38.9765 93.792 38.944C95.0933 38.7093 96.3413 38.2933 97.536 37.696C97.796 37.5692 98.0639 37.4593 98.338 37.367C99.15 37.097 99.8667 37.066 100.488 37.274C100.55 37.2949 100.612 37.3183 100.672 37.344C101.115 37.5255 101.512 37.804 101.833 38.159C102.094 38.4553 102.297 38.7974 102.432 39.168C102.717 39.928 102.749 40.7133 102.526 41.524C102.498 41.625 102.467 41.7251 102.432 41.824C102.133 42.6807 101.49 43.398 100.503 43.976C100.432 44.0173 100.36 44.0573 100.288 44.096C99.0593 44.7576 97.7597 45.2783 96.414 45.648C96.0544 45.7481 95.6923 45.8388 95.328 45.92C93.5147 46.3253 91.776 46.528 90.112 46.528C86.474 46.528 83.338 45.8823 80.704 44.591C80.6505 44.565 80.5972 44.5386 80.544 44.512C78.6837 43.5962 77.0373 42.2987 75.712 40.704C75.2247 40.1109 74.786 39.4795 74.4 38.816C73.4424 37.1498 72.8016 35.3206 72.51 33.421C72.3375 32.3373 72.2526 31.2414 72.256 30.144C72.256 26.9013 72.9493 24.0533 74.336 21.6C75.7227 19.1467 77.6213 17.2267 80.032 15.84C81.8538 14.8048 83.8655 14.1474 85.947 13.907C86.7555 13.8077 87.5694 13.7586 88.384 13.76C92.9493 13.76 96.576 15.2 99.264 18.08C100.996 19.9615 102.2 22.2679 102.753 24.765C103.11 26.2697 103.291 27.9067 103.296 29.676C103.296 29.704 103.296 29.732 103.296 29.76C103.296 31.3813 102.293 32.192 100.288 32.192ZM323.328 32.192H304.512C304.609 32.9302 304.777 33.6573 305.014 34.363C305.493 35.7523 306.232 36.8313 307.232 37.6C307.965 38.1515 308.793 38.564 309.675 38.817C310.738 39.1363 311.961 39.296 313.344 39.296C314.224 39.296 315.207 39.2093 316.292 39.036C316.472 39.0071 316.652 38.9765 316.832 38.944C318.133 38.7093 319.381 38.2933 320.576 37.696C320.836 37.5692 321.104 37.4593 321.378 37.367C322.19 37.097 322.907 37.066 323.528 37.274C323.59 37.2949 323.652 37.3183 323.712 37.344C324.155 37.5255 324.552 37.804 324.873 38.159C325.134 38.4553 325.337 38.7974 325.472 39.168C325.757 39.928 325.789 40.7133 325.566 41.524C325.538 41.625 325.507 41.7251 325.472 41.824C325.173 42.6807 324.53 43.398 323.543 43.976C323.472 44.0173 323.4 44.0573 323.328 44.096C322.099 44.7576 320.8 45.2783 319.454 45.648C319.094 45.7481 318.732 45.8388 318.368 45.92C316.555 46.3253 314.816 46.528 313.152 46.528C309.514 46.528 306.378 45.8823 303.744 44.591C303.691 44.565 303.637 44.5386 303.584 44.512C301.724 43.5962 300.077 42.2987 298.752 40.704C298.265 40.1109 297.826 39.4795 297.44 38.816C296.482 37.1498 295.842 35.3206 295.55 33.421C295.377 32.3373 295.293 31.2414 295.296 30.144C295.296 26.9013 295.989 24.0533 297.376 21.6C298.763 19.1467 300.661 17.2267 303.072 15.84C304.894 14.8048 306.905 14.1474 308.987 13.907C309.796 13.8077 310.609 13.7586 311.424 13.76C315.989 13.76 319.616 15.2 322.304 18.08C324.036 19.9615 325.24 22.2679 325.793 24.765C326.15 26.2697 326.331 27.9067 326.336 29.676C326.336 29.704 326.336 29.732 326.336 29.76C326.336 31.3813 325.333 32.192 323.328 32.192ZM146.752 33.664V21.632H144.064C141.915 21.632 140.684 20.7613 140.369 19.02C140.313 18.6991 140.286 18.3738 140.288 18.048C140.288 16.108 141.089 14.9417 142.69 14.549C143.14 14.4446 143.602 14.3946 144.064 14.4H146.752V9.536C146.743 8.88845 146.822 8.24266 146.985 7.616C147.539 5.61067 149.083 4.608 151.616 4.608C152.265 4.59825 152.913 4.68279 153.538 4.859C154.955 5.28233 155.848 6.243 156.219 7.741C156.357 8.32919 156.423 8.93191 156.416 9.536V14.4H162.496C162.984 14.3934 163.471 14.4523 163.943 14.575C165.046 14.8783 165.747 15.5777 166.044 16.673C166.159 17.1221 166.214 17.5844 166.208 18.048C166.208 19.954 165.421 21.0997 163.847 21.485C163.404 21.5878 162.951 21.6372 162.496 21.632H156.416V33.28C156.416 34.432 156.588 35.399 156.932 36.181C157.111 36.5964 157.358 36.9787 157.664 37.312C158.076 37.745 158.586 38.0738 159.15 38.271C159.559 38.4223 160.019 38.529 160.529 38.591C160.906 38.6355 161.285 38.6572 161.664 38.656C162.304 38.656 162.901 38.592 163.456 38.464C164.011 38.336 164.523 38.2507 164.992 38.208C165.589 38.1653 166.08 38.3573 166.464 38.784C166.587 38.9266 166.683 39.0898 166.749 39.266C166.88 39.594 166.966 40.0237 167.009 40.555C167.031 40.8388 167.041 41.1234 167.04 41.408C167.04 42.336 166.911 43.143 166.653 43.829C166.615 43.9301 166.573 44.0298 166.528 44.128C166.241 44.7542 165.75 45.2646 165.136 45.576C165.006 45.6444 164.873 45.7058 164.736 45.76C164.207 45.9633 163.493 46.1377 162.595 46.283C162.551 46.2901 162.508 46.2971 162.464 46.304C161.729 46.4187 161.076 46.4893 160.503 46.516C160.335 46.5239 160.168 46.5279 160 46.528C158.26 46.5514 156.524 46.3442 154.838 45.912C150.901 44.842 148.401 42.375 147.34 38.511C146.929 36.9288 146.731 35.2987 146.752 33.664V33.664ZM271.232 42.432L261.568 20.16C261.195 19.3027 261.008 18.4993 261.008 17.75C261.004 17.0606 261.174 16.3815 261.504 15.776C262.065 14.7413 263.117 14.132 264.66 13.948C265.015 13.9069 265.371 13.8869 265.728 13.888C266.734 13.888 267.577 14.0913 268.258 14.498C268.356 14.5567 268.452 14.6202 268.544 14.688C268.812 14.8908 269.051 15.1297 269.254 15.398C269.635 15.888 269.987 16.5337 270.312 17.335C270.365 17.4652 270.415 17.5963 270.464 17.728L277.056 34.368L283.84 17.664C283.995 17.2841 284.169 16.912 284.36 16.549C284.815 15.6917 285.303 15.0713 285.824 14.688C286.549 14.1547 287.552 13.888 288.832 13.888C289.297 13.8827 289.76 13.944 290.207 14.07C290.652 14.1966 291.067 14.4133 291.425 14.7068C291.783 15.0002 292.077 15.3642 292.288 15.776C292.606 16.3574 292.772 17.0101 292.77 17.673C292.77 18.4297 292.567 19.2373 292.16 20.096L282.304 42.432C282.018 43.1381 281.631 43.7989 281.155 44.394C280.068 45.7207 278.61 46.3893 276.78 46.4C276.765 46.4 276.751 46.4 276.736 46.4C275.678 46.4226 274.636 46.1396 273.735 45.585C273.038 45.145 272.432 44.526 271.919 43.728C271.656 43.3152 271.426 42.8817 271.232 42.432ZM237.149 46.085C238.613 46.388 240.105 46.5365 241.6 46.528C244.971 46.528 247.904 45.856 250.4 44.512C252.896 43.168 254.837 41.2693 256.224 38.816C256.999 37.4303 257.556 35.9339 257.877 34.379C258.169 32.9649 258.312 31.524 258.304 30.08C258.308 28.9589 258.222 27.8394 258.047 26.732C257.762 24.8628 257.144 23.0598 256.224 21.408C254.837 18.9547 252.896 17.0667 250.4 15.744C249.026 15.0231 247.556 14.5006 246.035 14.192C244.575 13.8963 243.089 13.7515 241.6 13.76C240.38 13.7555 239.162 13.8509 237.957 14.045C236.157 14.3271 234.415 14.901 232.8 15.744C230.304 17.0667 228.373 18.9547 227.008 21.408C226.268 22.7515 225.729 24.1966 225.409 25.697C225.102 27.1376 224.952 28.6071 224.96 30.08C224.96 33.4507 225.643 36.3627 227.008 38.816C228.373 41.2693 230.304 43.168 232.8 44.512C234.167 45.241 235.632 45.7707 237.149 46.085V46.085ZM48 41.472V18.752C48 16.192 48.984 14.6427 50.952 14.104C51.5344 13.953 52.1344 13.8803 52.736 13.888C53.3781 13.8784 54.0181 13.9622 54.636 14.137C56.032 14.5557 56.9127 15.5037 57.278 16.981C57.4138 17.5614 57.479 18.156 57.472 18.752V19.904C57.9902 18.5458 58.8244 17.3305 59.9055 16.3586C60.9866 15.3867 62.2835 14.6862 63.689 14.315C64.7711 14.0064 65.8844 13.8203 67.008 13.76C67.1175 13.7512 67.2272 13.7462 67.337 13.745C68.245 13.735 68.9567 14.0067 69.472 14.56C70.026 15.1547 70.3333 16.1133 70.394 17.436C70.3964 17.4907 70.3984 17.5453 70.4 17.6C70.4092 17.7368 70.4145 17.8739 70.416 18.011C70.4253 19.141 70.1533 20.0493 69.6 20.736C69.2954 21.1055 68.9129 21.4033 68.48 21.608C67.9393 21.8733 67.278 22.052 66.496 22.144L65.024 22.272C64.0262 22.3572 63.0437 22.5713 62.101 22.909C59.271 23.9663 57.856 26.186 57.856 29.568V41.472C57.8651 42.1195 57.7871 42.7653 57.624 43.392C57.0693 45.3973 55.5253 46.4 52.992 46.4C52.336 46.4089 51.6818 46.3295 51.047 46.164C49.0157 45.6027 48 44.0387 48 41.472ZM241.6 39.296C242.502 39.3071 243.397 39.1399 244.234 38.804C245.157 38.417 245.976 37.8182 246.624 37.056C247.176 36.4051 247.602 35.6565 247.879 34.849C248.124 34.1677 248.305 33.4037 248.421 32.557C248.529 31.7358 248.58 30.9082 248.576 30.08C248.58 29.2455 248.526 28.4118 248.413 27.585C248.294 26.749 248.11 25.9957 247.86 25.325C247.583 24.5464 247.164 23.8259 246.624 23.2C246.048 22.5311 245.338 21.99 244.54 21.6113C243.743 21.2327 242.875 21.0248 241.992 21.001C241.861 20.9949 241.731 20.9919 241.6 20.992C240.744 20.9821 239.895 21.1306 239.093 21.43C238.131 21.8047 237.277 22.413 236.608 23.2C236.065 23.842 235.646 24.5801 235.374 25.376C235.135 26.0433 234.958 26.791 234.844 27.619C234.736 28.4348 234.684 29.2571 234.688 30.08C234.688 33.1973 235.312 35.5037 236.56 36.999C236.576 37.0181 236.592 37.0371 236.608 37.056C237.163 37.7228 237.853 38.2655 238.631 38.649C239.41 39.0324 240.26 39.2481 241.127 39.282C241.284 39.2913 241.442 39.296 241.6 39.296V39.296ZM81.472 27.2H95.296C95.0707 23.062 93.3523 20.748 90.141 20.258C89.6865 20.1908 89.2275 20.158 88.768 20.16C88.0189 20.1534 87.2724 20.2486 86.549 20.443C85.5151 20.7224 84.5709 21.2643 83.808 22.016C83.0594 22.764 82.4795 23.6635 82.107 24.654C81.847 25.32 81.6527 26.053 81.524 26.853C81.5052 26.9684 81.4878 27.0841 81.472 27.2V27.2ZM304.512 27.2H318.336C318.111 23.062 316.392 20.748 313.181 20.258C312.726 20.1908 312.267 20.158 311.808 20.16C311.059 20.1534 310.312 20.2486 309.589 20.443C308.555 20.7224 307.611 21.2643 306.848 22.016C306.099 22.764 305.519 23.6635 305.147 24.654C304.887 25.32 304.693 26.053 304.564 26.853C304.545 26.9684 304.528 27.0841 304.512 27.2V27.2ZM128.128 33.408V32.128H125.888C123.361 32.128 121.402 32.2983 120.011 32.639C119.636 32.7276 119.268 32.8456 118.912 32.992C117.636 33.5307 116.956 34.4327 116.873 35.698C116.867 35.7879 116.864 35.8779 116.864 35.968C116.864 37.1627 117.28 38.144 118.112 38.912C118.813 39.5587 119.778 39.933 121.007 40.035C121.247 40.0546 121.487 40.0643 121.728 40.064C122.674 40.0759 123.611 39.8781 124.472 39.485C125.142 39.1683 125.752 38.736 126.272 38.208C127.308 37.1715 127.947 35.8045 128.079 34.345C128.112 34.0338 128.129 33.721 128.128 33.408Z" fill="#FFFFFB" stroke="#FFFFFB" stroke-width="0.25" stroke-linecap="round"/>
</svg>
