<svg viewBox="0 0 633 543" fill="none" xmlns="http://www.w3.org/2000/svg">
<path d="M449.906 541.137C445.365 541.133 440.899 539.985 436.92 537.798L67.4537 335.861C61.1438 332.403 56.4641 326.585 54.4412 319.683C52.4183 312.781 53.2175 305.359 56.6633 299.045L212.58 14.1234C214.291 10.9979 216.6 8.23968 219.377 6.00622C222.154 3.77277 225.344 2.10782 228.765 1.10645C232.186 0.105081 235.77 -0.213101 239.314 0.170073C242.858 0.553248 246.292 1.63027 249.419 3.33965L618.885 205.277C625.195 208.735 629.875 214.553 631.898 221.455C633.921 228.357 633.122 235.779 629.676 242.093L473.759 527.014C472.056 530.146 469.749 532.908 466.971 535.143C464.193 537.377 460.999 539.039 457.574 540.031C455.084 540.763 452.502 541.135 449.906 541.137ZM439.152 533.718C444.386 536.578 450.542 537.244 456.266 535.568C461.99 533.892 466.814 530.013 469.676 524.783L625.593 239.861C628.448 234.63 629.11 228.48 627.434 222.761C625.758 217.042 621.881 212.222 616.652 209.356L247.186 7.41928C241.953 4.55911 235.797 3.89369 230.073 5.5694C224.349 7.24511 219.525 11.1247 216.663 16.3547L60.7458 301.276C57.8907 306.508 57.2285 312.657 58.9046 318.376C60.5808 324.095 64.4583 328.916 69.6865 331.781L439.152 533.718Z" fill="#B6EAFB"/>
<path d="M457.524 441.489C453.273 441.486 449.091 440.415 445.362 438.375L146.66 275.115C143.753 273.531 141.188 271.388 139.112 268.812C137.035 266.235 135.487 263.274 134.556 260.099C133.625 256.924 133.33 253.596 133.688 250.307C134.045 247.017 135.049 243.831 136.64 240.929L229.758 70.7651C231.346 67.8626 233.491 65.3012 236.069 63.2272C238.648 61.1531 241.61 59.607 244.787 58.6771C247.963 57.7472 251.292 57.4518 254.583 57.8077C257.873 58.1636 261.062 59.1639 263.966 60.7515L562.669 224.011C565.573 225.599 568.136 227.742 570.211 230.319C572.286 232.896 573.833 235.856 574.764 239.031C575.694 242.205 575.99 245.532 575.634 248.821C575.277 252.109 574.277 255.296 572.688 258.198L479.57 428.362C477.417 432.33 474.233 435.643 470.353 437.954C466.473 440.264 462.041 441.485 457.524 441.489Z" fill="#3AB9E4"/>
<path d="M448.253 541.062H27.1432C20.4609 541.055 14.0544 538.399 9.32932 533.676C4.6042 528.954 1.9463 522.551 1.93872 515.873V191.126C1.9463 184.448 4.6042 178.045 9.32932 173.323C14.0544 168.6 20.4609 165.944 27.1432 165.937H448.253C454.935 165.944 461.342 168.6 466.067 173.323C470.792 178.045 473.45 184.448 473.457 191.126V515.873C473.45 522.551 470.792 528.954 466.067 533.676C461.342 538.399 454.935 541.055 448.253 541.062V541.062Z" fill="white"/>
<path d="M448.253 543H27.1433C19.947 542.992 13.0477 540.131 7.95905 535.046C2.87044 529.96 0.00810176 523.065 0 515.873V191.126C0.00810176 183.934 2.87044 177.039 7.95905 171.953C13.0477 166.868 19.947 164.007 27.1433 163.999H448.253C455.449 164.007 462.349 166.868 467.437 171.953C472.526 177.039 475.388 183.934 475.396 191.126V515.873C475.388 523.065 472.526 529.96 467.437 535.046C462.349 540.131 455.449 542.992 448.253 543ZM27.1433 168.649C21.1806 168.656 15.4641 171.026 11.2478 175.24C7.03152 179.454 4.65987 185.167 4.65314 191.126V515.873C4.65987 521.832 7.03152 527.545 11.2478 531.759C15.4641 535.973 21.1806 538.343 27.1433 538.35H448.253C454.216 538.343 459.932 535.973 464.148 531.759C468.365 527.545 470.736 521.832 470.743 515.873V191.126C470.736 185.167 468.365 179.454 464.148 175.24C459.932 171.026 454.216 168.656 448.253 168.649H27.1433Z" fill="#63CBEE"/>
<path d="M303.232 272.729C298.34 272.726 293.514 273.857 289.133 276.034C284.753 278.21 280.938 281.374 277.988 285.274C274.822 283.913 271.367 283.358 267.934 283.66C264.5 283.963 261.196 285.112 258.317 287.006C255.438 288.9 253.074 291.478 251.439 294.51C249.803 297.542 248.946 300.933 248.945 304.377H334.9C334.9 300.221 334.08 296.106 332.489 292.266C330.898 288.426 328.565 284.938 325.624 281.999C322.684 279.06 319.193 276.729 315.351 275.138C311.509 273.548 307.391 272.729 303.232 272.729Z" fill="#E6E6E6"/>
<path d="M114.93 396.608C143.094 396.608 165.926 373.79 165.926 345.643C165.926 317.496 143.094 294.678 114.93 294.678C86.7654 294.678 63.9336 317.496 63.9336 345.643C63.9336 373.79 86.7654 396.608 114.93 396.608Z" fill="#63CBEE"/>
<path d="M413.633 450.676C411.763 451.116 409.847 451.337 407.926 451.334H67.4706C63.2776 451.342 59.1517 450.283 55.481 448.258L56.3883 446.955L94.3734 392.291L150.661 311.306L151.483 310.12L160.339 297.378C160.935 296.52 161.729 295.82 162.654 295.336C163.579 294.852 164.608 294.599 165.652 294.599C166.696 294.599 167.725 294.852 168.65 295.336C169.575 295.82 170.369 296.52 170.964 297.378L200.388 339.704V339.711L217.697 364.621L259.017 424.068L321.687 334.666C322.284 333.813 323.078 333.117 324.001 332.636C324.925 332.156 325.951 331.905 326.992 331.905C328.033 331.905 329.059 332.156 329.982 332.636C330.906 333.117 331.7 333.813 332.296 334.666L372.499 392.012L374.811 395.306L413.633 450.676Z" fill="#3F3D56"/>
<path d="M235.55 325.574C229.514 325.57 223.559 326.965 218.155 329.651C212.75 332.337 208.043 336.239 204.404 341.051C200.498 339.372 196.236 338.687 192 339.06C187.764 339.433 183.687 340.851 180.134 343.188C176.582 345.524 173.666 348.706 171.648 352.447C169.63 356.187 168.573 360.37 168.572 364.62H274.62C274.62 359.493 273.609 354.415 271.646 349.678C269.682 344.941 266.804 340.636 263.176 337.01C259.548 333.385 255.241 330.508 250.501 328.546C245.761 326.584 240.68 325.574 235.55 325.574V325.574Z" fill="#CCCCCC"/>
<path d="M407.925 452.11H67.4705C64.1088 452.113 60.7795 451.453 57.6731 450.169C54.5667 448.885 51.7443 447.001 49.3672 444.625C46.9901 442.249 45.1051 439.429 43.8201 436.324C42.535 433.22 41.8751 429.892 41.8782 426.533V232.584C41.8858 225.803 44.5846 219.301 49.3825 214.507C54.1803 209.712 60.6853 207.014 67.4705 207.007H407.925C414.711 207.014 421.216 209.712 426.013 214.507C430.811 219.301 433.51 225.803 433.518 232.584V426.533C433.522 429.893 432.862 433.22 431.578 436.325C430.293 439.43 428.408 442.251 426.031 444.627C423.653 447.003 420.831 448.886 417.724 450.17C414.617 451.454 411.287 452.113 407.925 452.11V452.11ZM67.4705 208.557C61.0966 208.564 54.9858 211.098 50.4787 215.602C45.9717 220.106 43.4365 226.214 43.4292 232.584V426.533C43.4263 429.689 44.0461 432.814 45.2532 435.731C46.4603 438.647 48.2311 441.297 50.4641 443.529C52.6971 445.76 55.3486 447.53 58.2668 448.737C61.1849 449.943 64.3125 450.562 67.4705 450.559H407.925C411.084 450.563 414.212 449.944 417.13 448.738C420.049 447.532 422.7 445.762 424.933 443.53C427.167 441.299 428.937 438.648 430.144 435.732C431.351 432.815 431.97 429.689 431.967 426.533V232.584C431.959 226.214 429.424 220.106 424.917 215.602C420.41 211.098 414.299 208.564 407.925 208.557H67.4705Z" fill="#3F3D56"/>
</svg>
