<svg  viewBox="0 0 100 96" fill="none" xmlns="http://www.w3.org/2000/svg">
<path d="M63.4841 21.5901H36.5385C35.9244 21.5908 35.3357 21.831 34.9015 22.2581C34.4673 22.6851 34.2231 23.264 34.2223 23.8679V82.7657L33.9135 82.8583L27.3033 84.8492C26.99 84.9431 26.6517 84.9109 26.3625 84.7598C26.0733 84.6086 25.8569 84.3507 25.7608 84.0428L6.09851 20.8779C6.00282 20.5698 6.03543 20.2369 6.18918 19.9524C6.34292 19.668 6.60522 19.4552 6.91842 19.3608L17.1047 16.2933L46.6352 7.40361L56.8214 4.3361C56.9764 4.28918 57.1394 4.27278 57.3008 4.28785C57.4623 4.30292 57.6191 4.34915 57.7624 4.42391C57.9057 4.49866 58.0326 4.60047 58.1358 4.72351C58.239 4.84655 58.3166 4.9884 58.364 5.14094L63.3899 21.2864L63.4841 21.5901Z" fill="#F2F2F2"/>
<path d="M69.3649 21.2877L63.3075 1.82878C63.2067 1.50456 63.0419 1.20304 62.8226 0.941464C62.6033 0.679887 62.3338 0.463375 62.0293 0.304298C61.7249 0.145221 61.3916 0.0466973 61.0484 0.0143596C60.7053 -0.0179782 60.359 0.0165041 60.0294 0.115832L45.7081 4.42705L16.1792 13.3183L1.85792 17.631C1.19263 17.8319 0.635573 18.2842 0.309022 18.8887C-0.0175282 19.4931 -0.0868921 20.2003 0.116159 20.8549L20.8191 87.3577C20.9841 87.8861 21.3169 88.3487 21.7688 88.6775C22.2207 89.0063 22.7678 89.184 23.3299 89.1845C23.59 89.1846 23.8487 89.1462 24.0972 89.0706L33.9145 86.1155L34.2233 86.0213V85.704L33.9145 85.7966L24.0061 88.7806C23.4189 88.9566 22.7846 88.8964 22.2425 88.6132C21.7003 88.3299 21.2945 87.8467 21.1141 87.2696L0.412685 20.7654C0.323297 20.4794 0.292143 20.1789 0.321005 19.8811C0.349868 19.5833 0.438178 19.294 0.580885 19.0298C0.723592 18.7656 0.917891 18.5316 1.15265 18.3414C1.38741 18.1511 1.65803 18.0083 1.949 17.9211L16.2703 13.6083L45.7993 4.71862L60.1206 0.405882C60.3413 0.339642 60.5707 0.305867 60.8014 0.305656C61.2967 0.306749 61.7785 0.463763 62.1764 0.753698C62.5743 1.04363 62.8673 1.45126 63.0126 1.91686L69.0422 21.2877L69.1379 21.5915H69.4591L69.3649 21.2877Z" fill="#3F3D56"/>
<path d="M18.9429 19.4105C18.6453 19.4103 18.3556 19.3163 18.1163 19.1423C17.877 18.9683 17.7007 18.7234 17.6132 18.4436L15.6244 12.0548C15.571 11.8831 15.5524 11.7028 15.5698 11.5242C15.5872 11.3455 15.6403 11.172 15.7259 11.0135C15.8115 10.855 15.928 10.7146 16.0688 10.6004C16.2096 10.4862 16.3719 10.4004 16.5464 10.3478L43.7127 2.16825C44.0651 2.06249 44.4458 2.09856 44.7712 2.26855C45.0966 2.43854 45.3402 2.72856 45.4484 3.07495L47.4372 9.46391C47.5447 9.81051 47.508 10.1849 47.3351 10.5049C47.1623 10.8249 46.8675 11.0644 46.5153 11.1709L19.3489 19.3505C19.2173 19.3902 19.0805 19.4104 18.9429 19.4105Z" fill="#63CBEE"/>
<path d="M29.3612 6.82668C31.0667 6.82668 32.4493 5.4669 32.4493 3.78954C32.4493 2.11217 31.0667 0.752396 29.3612 0.752396C27.6556 0.752396 26.273 2.11217 26.273 3.78954C26.273 5.4669 27.6556 6.82668 29.3612 6.82668Z" fill="#63CBEE"/>
<path d="M29.3612 5.71274C30.4412 5.71274 31.3167 4.85169 31.3167 3.78953C31.3167 2.72737 30.4412 1.86632 29.3612 1.86632C28.2812 1.86632 27.4056 2.72737 27.4056 3.78953C27.4056 4.85169 28.2812 5.71274 29.3612 5.71274Z" fill="white"/>
<path d="M93.0517 88.4072H40.8619C40.5139 88.4068 40.1803 88.2706 39.9343 88.0286C39.6882 87.7867 39.5498 87.4586 39.5494 87.1164V25.6143C39.5498 25.2721 39.6882 24.944 39.9343 24.702C40.1803 24.46 40.5139 24.3239 40.8619 24.3235H93.0517C93.3997 24.3239 93.7332 24.46 93.9793 24.702C94.2253 24.944 94.3638 25.2721 94.3642 25.6143V87.1164C94.3637 87.4586 94.2253 87.7867 93.9793 88.0286C93.7332 88.2706 93.3996 88.4067 93.0517 88.4072Z" fill="#E6E6E6"/>
<path d="M69.0413 21.2864H36.5385C35.8426 21.2873 35.1755 21.5596 34.6834 22.0436C34.1914 22.5275 33.9145 23.1836 33.9135 23.8679V85.7952L34.2223 85.7026V23.8679C34.2231 23.264 34.4673 22.6851 34.9015 22.2581C35.3357 21.831 35.9244 21.5908 36.5385 21.5901H69.137L69.0413 21.2864ZM97.3751 21.2864H36.5385C35.8426 21.2873 35.1755 21.5596 34.6834 22.0436C34.1914 22.5275 33.9145 23.1836 33.9135 23.8679V93.4184C33.9145 94.1028 34.1914 94.7589 34.6834 95.2428C35.1755 95.7267 35.8426 95.999 36.5385 96H97.3751C98.0709 95.999 98.738 95.7267 99.2301 95.2428C99.7222 94.7589 99.999 94.1028 100 93.4184V23.8679C99.999 23.1836 99.7222 22.5275 99.2301 22.0436C98.738 21.5596 98.0709 21.2873 97.3751 21.2864ZM99.6912 93.4184C99.6904 94.0223 99.4462 94.6013 99.012 95.0283C98.5778 95.4553 97.9891 95.6955 97.3751 95.6963H36.5385C35.9244 95.6955 35.3357 95.4553 34.9015 95.0283C34.4673 94.6013 34.2231 94.0223 34.2223 93.4184V23.8679C34.2231 23.264 34.4673 22.6851 34.9015 22.2581C35.3357 21.831 35.9244 21.5908 36.5385 21.5901H97.3751C97.9891 21.5908 98.5778 21.831 99.012 22.2581C99.4462 22.6851 99.6904 23.264 99.6912 23.8679V93.4184Z" fill="#3F3D56"/>
<path d="M81.1623 27.9681H52.7513C52.3829 27.9677 52.0296 27.8235 51.7691 27.5673C51.5086 27.3111 51.362 26.9637 51.3616 26.6014V19.9197C51.362 19.5573 51.5086 19.2099 51.7691 18.9537C52.0296 18.6975 52.3829 18.5534 52.7513 18.5529H81.1623C81.5307 18.5534 81.884 18.6975 82.1445 18.9537C82.405 19.2099 82.5516 19.5573 82.552 19.9197V26.6014C82.5516 26.9637 82.405 27.3111 82.1445 27.5673C81.884 27.8235 81.5307 27.9677 81.1623 27.9681Z" fill="#63CBEE"/>
<path d="M66.9568 19.0085C68.6623 19.0085 70.0449 17.6487 70.0449 15.9714C70.0449 14.294 68.6623 12.9342 66.9568 12.9342C65.2512 12.9342 63.8686 14.294 63.8686 15.9714C63.8686 17.6487 65.2512 19.0085 66.9568 19.0085Z" fill="#63CBEE"/>
<path d="M66.9568 17.8213C67.9956 17.8213 68.8377 16.993 68.8377 15.9714C68.8377 14.9497 67.9956 14.1215 66.9568 14.1215C65.9179 14.1215 65.0758 14.9497 65.0758 15.9714C65.0758 16.993 65.9179 17.8213 66.9568 17.8213Z" fill="white"/>
</svg>
