<svg width="37" height="37" viewBox="0 0 37 37" fill="none" xmlns="http://www.w3.org/2000/svg">
<circle cx="18.5" cy="18.5" r="18.5" fill="#3AB9E4"/>
<path d="M15.1312 23C14.9539 23 14.8092 22.9487 14.6972 22.846C14.5945 22.7433 14.5432 22.608 14.5432 22.44V13.69C14.5432 13.522 14.5945 13.3867 14.6972 13.284C14.8092 13.1813 14.9539 13.13 15.1312 13.13H17.8612C19.4385 13.13 20.6565 13.5593 21.5152 14.418C22.3832 15.2673 22.8172 16.4807 22.8172 18.058C22.8172 19.6353 22.3832 20.8533 21.5152 21.712C20.6472 22.5707 19.4292 23 17.8612 23H15.1312ZM17.7912 22.02C20.3485 22.02 21.6272 20.6993 21.6272 18.058C21.6272 15.426 20.3485 14.11 17.7912 14.11H15.6912V22.02H17.7912Z" fill="#F2F5F7"/>
</svg>
